<svg viewBox="0 0 19 18" xmlns="http://www.w3.org/2000/svg">
    <path d="M9.09937 3.75L9.09936 2.25" stroke="#2230A8" stroke-width="2" stroke-linecap="round" />
    <path fill-rule="evenodd" clip-rule="evenodd"
        d="M16.6145 6H1.58398V8.25C2.46228 8.25 3.22282 8.85982 3.41372 9.71712L3.89298 11.8694C4.22718 13.3703 4.39429 14.1207 4.9426 14.5604C5.49091 15 6.25973 15 7.79735 15H10.4011C11.9387 15 12.7075 15 13.2559 14.5604C13.8042 14.1207 13.9713 13.3703 14.3055 11.8694L14.7847 9.71712C14.9756 8.85982 15.7362 8.25 16.6145 8.25V6ZM7.45523 9.5853C7.36426 9.04056 6.84891 8.67271 6.30417 8.76368C5.75943 8.85466 5.39158 9.37 5.48255 9.91475L5.85832 12.1647C5.94929 12.7095 6.46464 13.0773 7.00938 12.9864C7.55412 12.8954 7.92197 12.38 7.83099 11.8353L7.45523 9.5853ZM12.7158 9.91475C12.8068 9.37 12.439 8.85466 11.8942 8.76368C11.3495 8.67271 10.8341 9.04056 10.7431 9.5853L10.3674 11.8353C10.2764 12.38 10.6443 12.8954 11.189 12.9864C11.7337 13.0773 12.2491 12.7095 12.3401 12.1647L12.7158 9.91475Z"
        fill="#2230A8" />
</svg>