<svg width="20" height="20" viewBox="0 0 20 20" xmlns="http://www.w3.org/2000/svg">
    <path d="M10 4.16602L10 2.49935" stroke="white" stroke-linecap="round" />
    <path d="M8.33301 13.334L7.91634 10.834" stroke="white" stroke-linecap="round" />
    <path d="M11.667 13.334L12.0837 10.834" stroke="white" stroke-linecap="round" />
    <path
        d="M1.66699 7.5H18.3337V7.5C17.5466 7.5 17.1531 7.5 16.8242 7.61865C16.3816 7.7783 16.0095 8.08888 15.7732 8.49578C15.5976 8.79819 15.5272 9.18535 15.3864 9.95967L14.7642 13.3822C14.4787 14.9525 14.3359 15.7377 13.7793 16.2022C13.2228 16.6667 12.4247 16.6667 10.8287 16.6667H9.17197C7.57591 16.6667 6.77788 16.6667 6.22132 16.2022C5.66475 15.7377 5.522 14.9525 5.23648 13.3822L4.61421 9.95967C4.47342 9.18535 4.40303 8.79819 4.22745 8.49578C3.9912 8.08888 3.61906 7.7783 3.17646 7.61865C2.84752 7.5 2.45401 7.5 1.66699 7.5V7.5Z"
        stroke="white" stroke-linecap="round" />
</svg>