<svg width="16" height="15" viewBox="0 0 16 15" fill="none" xmlns="http://www.w3.org/2000/svg">
<path d="M2.36246 8.43634L7.5837 13.3312C7.68173 13.4231 7.73074 13.469 7.78095 13.4979C7.93539 13.5869 8.12548 13.5869 8.27992 13.4979C8.33013 13.469 8.37914 13.4231 8.47716 13.3312L8.47717 13.3312L13.6984 8.43634C15.1709 7.05591 15.3496 4.78114 14.1108 3.18769L13.8824 2.89393C12.4025 0.99029 9.43648 1.30998 8.39616 3.48527C8.24919 3.79259 7.81169 3.79259 7.66471 3.48527C6.6244 1.30998 3.65842 0.99029 2.17845 2.89393L1.95007 3.18769C0.711258 4.78114 0.889988 7.05591 2.36246 8.43634Z" fill="#FF4557" stroke="#FF4557" stroke-width="2"/>
</svg>