<svg width="35" height="35" viewBox="0 0 35 35" fill="none" xmlns="http://www.w3.org/2000/svg">
<g clip-path="url(#clip0)">
<g clip-path="url(#clip1)">
<path d="M29.5601 35.3819C21.8608 36.2046 14.1405 36.2046 6.44131 35.3819C3.36865 35.0515 0.942871 32.6327 0.619434 29.5601C-0.203223 21.8608 -0.203223 14.1405 0.619434 6.44131C0.949902 3.36865 3.37568 0.942871 6.44131 0.619434C14.1405 -0.203223 21.8608 -0.203223 29.5601 0.619434C32.6327 0.949902 35.0585 3.37568 35.3819 6.44131C36.2046 14.1405 36.2046 21.8608 35.3819 29.5601C35.0585 32.6327 32.6327 35.0585 29.5601 35.3819Z" fill="#FFFCF8"/>
<path d="M41.8641 27.2812C41.843 27.2812 21.3891 6.82031 21.3891 6.82031H17.9508V17.2125L15.7852 15.0328C15.4618 14.9836 15.1313 14.9555 14.7938 14.9555C13.029 14.9555 11.3766 15.6445 10.1321 16.8891C8.88755 18.1336 8.19849 19.793 8.19849 21.5508C8.19849 23.3086 8.88755 24.968 10.1321 26.2125L25.2282 41.3086C26.4657 42.5531 28.125 43.2422 29.8828 43.2422C30.2203 43.2422 30.5508 43.2141 30.8743 43.1719C32.2594 42.9609 33.5391 42.3211 34.5446 41.3156C35.7821 40.0781 36.4711 38.4328 36.4782 36.682L36.4852 28.8984C37.0828 29.3625 37.7367 29.7422 38.4328 30.0375C39.5227 30.4945 40.6758 30.7336 41.8641 30.7336C41.8641 30.7266 41.8641 27.2812 41.8641 27.2812Z" fill="url(#paint0_linear)"/>
<path d="M29.5601 35.3819C21.8608 36.2046 14.1405 36.2046 6.44131 35.3819C3.36865 35.0515 0.942871 32.6327 0.619434 29.5601C-0.203223 21.8608 -0.203223 14.1405 0.619434 6.44131C0.949902 3.36865 3.37568 0.942871 6.44131 0.619434C14.1405 -0.203223 21.8608 -0.203223 29.5601 0.619434C32.6327 0.949902 35.0585 3.37568 35.3819 6.44131C36.2046 14.1405 36.2046 21.8608 35.3819 29.5601C35.0585 32.6327 32.6327 35.0585 29.5601 35.3819Z" fill="url(#paint1_linear)"/>
<path d="M23.5265 11.0954C22.8444 10.1954 22.4366 9.07744 22.4366 7.86104H22.4226V7.854H21.5015C21.7616 9.16885 22.4929 10.3149 23.5265 11.0954Z" fill="#F00044"/>
<path d="M14.7938 18.401C13.05 18.401 11.6438 19.8143 11.6438 21.551C11.6438 22.683 12.2415 23.6814 13.1415 24.2369C12.8461 23.7588 12.6774 23.1893 12.6774 22.5846C12.6774 20.8408 14.0907 19.4346 15.8274 19.4346C16.1719 19.4346 16.5094 19.4908 16.8188 19.5963V16.0666C16.4954 16.0174 16.1649 15.9893 15.8274 15.9893C15.8133 15.9893 15.7993 15.9893 15.7852 15.9893V18.5627C15.4688 18.4572 15.1383 18.401 14.7938 18.401Z" fill="#F00044"/>
<path d="M27.8015 13.2186C27.4499 13.2186 27.1054 13.1834 26.7749 13.1201V15.6303C25.5866 15.6303 24.4335 15.3982 23.3437 14.9342C22.6405 14.6389 21.9937 14.2592 21.396 13.7951V21.5787H21.389C21.3819 23.3295 20.6999 24.9748 19.4554 26.2123C18.4499 27.2178 17.1702 27.8647 15.7851 28.0686C15.4616 28.1178 15.1312 28.1389 14.7937 28.1389C13.2749 28.1389 11.8405 27.6326 10.6733 26.6975C10.828 26.8873 10.9897 27.0701 11.1585 27.2459C12.403 28.4975 14.0624 29.1795 15.8202 29.1795C16.1577 29.1795 16.4882 29.1514 16.8116 29.1092C18.1968 28.8982 19.4765 28.2584 20.4819 27.2529C21.7194 26.0154 22.4085 24.3701 22.4155 22.6193H22.4226V14.8287C23.0202 15.2928 23.6741 15.6725 24.3702 15.9678C25.4601 16.4318 26.6132 16.6639 27.8015 16.6639V13.2186Z" fill="url(#paint2_linear)"/>
<path d="M26.768 13.1202V12.1851C25.5516 12.1851 24.4266 11.7772 23.5266 11.0952C24.3071 12.1218 25.4532 12.8601 26.768 13.1202Z" fill="#08FFF9"/>
<path d="M15.8203 25.7344C16.1648 25.7344 16.5023 25.6781 16.8117 25.5727C18.0632 25.1578 18.9703 23.9766 18.9703 22.5844L18.9773 17.3672V7.85391H21.5015C21.4382 7.52344 21.4031 7.17891 21.4031 6.82734H21.389V6.82031H17.9507V16.3406L17.9437 21.5578C17.9437 22.95 17.0367 24.1313 15.7851 24.5461C15.4757 24.6516 15.1382 24.7078 14.7937 24.7078C14.189 24.7078 13.6195 24.5391 13.1414 24.2437C13.6968 25.1367 14.6882 25.7344 15.8203 25.7344Z" fill="url(#paint3_linear)"/>
<path d="M11.1586 17.9228C12.3961 16.6853 14.0344 16.0032 15.7781 15.9892V15.0329C15.4547 14.9837 15.1242 14.9556 14.7867 14.9556C13.0219 14.9556 11.3695 15.6446 10.125 16.8892C8.88047 18.1337 8.19141 19.7931 8.19141 21.5509C8.19141 23.3087 8.88047 24.9681 10.125 26.2126C10.3008 26.3884 10.4836 26.5501 10.6734 26.6978C9.73828 25.5306 9.23203 24.0962 9.23203 22.5774C9.23203 20.8267 9.91406 19.1673 11.1586 17.9228Z" fill="#08FFF9"/>
<path d="M15.7782 28.0759C17.1633 27.8649 18.443 27.2251 19.4485 26.2196C20.686 24.9821 21.3751 23.3368 21.3821 21.586H21.3891V13.7954C21.9868 14.2595 22.6407 14.6392 23.3368 14.9345C24.4266 15.3985 25.5797 15.6306 26.768 15.6306V13.1204C25.4532 12.8673 24.3071 12.129 23.5196 11.0954C22.493 10.3149 21.7547 9.16885 21.4946 7.854H18.9704V17.3743L18.9633 22.5915C18.9633 23.9837 18.0563 25.1649 16.8047 25.5798C16.4954 25.6853 16.1579 25.7415 15.8133 25.7415C14.6813 25.7415 13.6829 25.1438 13.1274 24.2438C12.2274 23.6884 11.6297 22.697 11.6297 21.5579C11.6297 19.8142 13.043 18.4079 14.7797 18.4079C15.1243 18.4079 15.4618 18.4642 15.7711 18.5696V16.0032C14.0274 16.0103 12.3891 16.6993 11.1516 17.9368C9.90708 19.1813 9.21802 20.8407 9.21802 22.5985C9.21802 24.1103 9.72427 25.5517 10.6594 26.7188C11.8266 27.654 13.261 28.1603 14.7797 28.1603C15.1243 28.1462 15.4547 28.1251 15.7782 28.0759Z" fill="black"/>
</g>
</g>
<defs>
<linearGradient id="paint0_linear" x1="12.0063" y1="12.76" x2="37.5529" y2="38.3066" gradientUnits="userSpaceOnUse">
<stop stop-color="#B7C1CE"/>
<stop offset="1" stop-color="#B8C1CF" stop-opacity="0"/>
</linearGradient>
<linearGradient id="paint1_linear" x1="18.001" y1="29.2562" x2="18.001" y2="35.3383" gradientUnits="userSpaceOnUse">
<stop stop-color="#94A1B2" stop-opacity="0"/>
<stop offset="1" stop-color="#94A1B2"/>
</linearGradient>
<linearGradient id="paint2_linear" x1="17.2149" y1="17.9678" x2="23.4906" y2="24.2436" gradientUnits="userSpaceOnUse">
<stop stop-color="#F00044"/>
<stop offset="1" stop-color="#C70038"/>
</linearGradient>
<linearGradient id="paint3_linear" x1="13.2218" y1="11.5443" x2="22.2713" y2="20.5938" gradientUnits="userSpaceOnUse">
<stop stop-color="#08FFF9"/>
<stop offset="1" stop-color="#07D4CF"/>
</linearGradient>
<clipPath id="clip0">
<rect width="35" height="35" rx="17.5" fill="white"/>
</clipPath>
<clipPath id="clip1">
<rect width="36" height="36" fill="white"/>
</clipPath>
</defs>
</svg>
