<svg width="35" height="35" viewBox="0 0 35 35" fill="none" xmlns="http://www.w3.org/2000/svg">
<g clip-path="url(#clip0)">
<rect width="35" height="35" rx="17.5" fill="#28348A"/>
<path d="M10.8499 17.85L8.58838 13.65L15.7499 18.55V13.3L15.3999 12.95H18.5499L19.2499 18.2H20.1384L26.5999 13.3L35.6999 21.7L35.3499 30.1L25.5499 33.25C25.5499 33.25 15.0499 22.4 13.9999 21.7C12.9499 21 10.8499 17.85 10.8499 17.85Z" fill="#0F1869"/>
<path fill-rule="evenodd" clip-rule="evenodd" d="M18.6487 23.0097C18.6487 23.0097 18.9856 22.973 19.1581 22.7911C19.3161 22.6244 19.3106 22.3098 19.3106 22.3098C19.3106 22.3098 19.2896 20.841 19.9844 20.6241C20.6691 20.4108 21.5483 22.0445 22.4814 22.6728C23.1862 23.1478 23.7212 23.0438 23.7212 23.0438L26.2146 23.0097C26.2146 23.0097 27.5184 22.9309 26.9003 21.9245C26.8491 21.842 26.5396 21.1797 25.0469 19.8193C23.4829 18.3953 23.6929 18.6256 25.5755 16.162C26.7222 14.6618 27.1805 13.7459 27.0372 13.3542C26.9012 12.9796 26.0576 13.0791 26.0576 13.0791L23.251 13.0961C23.251 13.0961 23.0429 13.0684 22.8886 13.1589C22.7379 13.2476 22.6403 13.4546 22.6403 13.4546C22.6403 13.4546 22.1965 14.6152 21.604 15.6028C20.3541 17.6855 19.8547 17.7957 19.6502 17.6667C19.1746 17.3647 19.2932 16.455 19.2932 15.8089C19.2932 13.7898 19.6055 12.9483 18.6861 12.7305C18.3812 12.6579 18.1566 12.6104 17.376 12.6023C16.3744 12.5925 15.5272 12.6059 15.0469 12.8362C14.7274 12.9895 14.4809 13.3318 14.6315 13.3516C14.8169 13.3757 15.2368 13.4627 15.4596 13.7602C15.7472 14.1447 15.7372 15.0068 15.7372 15.0068C15.7372 15.0068 15.9024 17.3835 15.351 17.6783C14.973 17.8809 14.4544 17.4677 13.3397 15.5777C12.769 14.6098 12.3381 13.5397 12.3381 13.5397C12.3381 13.5397 12.255 13.3399 12.1062 13.2324C11.9264 13.1024 11.6753 13.0621 11.6753 13.0621L9.00844 13.0791C9.00844 13.0791 8.60764 13.0899 8.46065 13.261C8.33009 13.4125 8.45061 13.7271 8.45061 13.7271C8.45061 13.7271 10.5386 18.5225 12.9032 20.9396C15.0716 23.1549 17.533 23.0097 17.533 23.0097H18.6487Z" fill="white"/>
</g>
<defs>
<clipPath id="clip0">
<rect width="35" height="35" rx="17.5" fill="white"/>
</clipPath>
</defs>
</svg>
