<svg width="50" height="50" viewBox="0 0 50 50" fill="none" xmlns="http://www.w3.org/2000/svg">
<path d="M25 50C38.8071 50 50 38.8071 50 25C50 11.1929 38.8071 0 25 0C11.1929 0 0 11.1929 0 25C0 38.8071 11.1929 50 25 50Z" fill="#28348A"/>
<path d="M50 25C50 29.6471 48.7316 33.9989 46.5225 37.7277C45.1469 40.0478 43.4063 42.1276 41.3795 43.8866C37.1838 47.5285 31.7631 49.7959 25.8175 49.9866C25.5459 49.9958 25.2735 50 25 50C24.7265 50 24.4541 49.9958 24.1825 49.9866C18.2663 49.7971 12.8716 47.5521 8.68454 43.943C6.57845 42.1276 4.77867 39.9662 3.37334 37.5488C1.22871 33.8612 0 29.5734 0 25C0 20.5795 1.14708 16.4265 3.1601 12.8235C6.29807 7.20825 11.5387 2.9274 17.8162 1.0479C20.0909 0.366211 22.5029 0 25 0C27.4971 0 29.9091 0.366211 32.1838 1.0479C38.4193 2.91519 43.6325 7.15218 46.7766 12.7121C48.8285 16.3406 50 20.5338 50 25Z" fill="#2230A8"/>
<path d="M36.5929 12.9807C33.6059 13.3588 30.4914 13.3456 27.357 13.0472C22.9799 12.7105 16.5826 10.6902 14.2257 14.7307C10.4394 21.199 12.3068 29.4802 13.1892 36.8086L26.3471 49.9637C39.0803 49.2876 49.2852 39.0841 49.9634 26.3514L36.5929 12.9807Z" fill="#0F1869"/>
<path d="M30.7841 10.6902H19.2162C14.515 10.6902 10.6904 14.5148 10.6904 19.216V30.7838C10.6904 35.4848 14.515 39.3097 19.2163 39.3097H30.7842C35.4852 39.3097 39.3101 35.485 39.3101 30.7838V19.216C39.31 14.5148 35.4853 10.6902 30.7841 10.6902ZM36.4309 30.7839C36.4309 33.9025 33.9027 36.4306 30.7842 36.4306H19.2163C16.0978 36.4306 13.5696 33.9025 13.5696 30.7839V19.2161C13.5696 16.0975 16.0978 13.5693 19.2163 13.5693H30.7842C33.9027 13.5693 36.4309 16.0976 36.4309 19.2161V30.7839Z" fill="white"/>
<path d="M24.9998 17.5979C20.9184 17.5979 17.5977 20.9186 17.5977 25C17.5977 29.0812 20.9184 32.4019 24.9998 32.4019C29.0812 32.4019 32.4017 29.0815 32.4017 25C32.4017 20.9186 29.0812 17.5979 24.9998 17.5979ZM24.9998 29.5228C22.5019 29.5228 20.4768 27.4981 20.4768 25C20.4768 22.502 22.5019 20.477 24.9998 20.477C27.4978 20.477 29.5226 22.5019 29.5226 25C29.5226 27.498 27.4978 29.5228 24.9998 29.5228Z" fill="white"/>
<path d="M34.1905 17.6536C34.1905 18.6331 33.3964 19.4273 32.4168 19.4273C31.4373 19.4273 30.6431 18.6331 30.6431 17.6536C30.6431 16.674 31.4373 15.8799 32.4168 15.8799C33.3966 15.8799 34.1905 16.6738 34.1905 17.6536Z" fill="#EEEEEE"/>
<path d="M30.7844 10.6902H24.9443V13.5693H30.7844C33.9029 13.5693 36.4311 16.0976 36.4311 19.2161V30.7839C36.4311 33.9025 33.9029 36.4306 30.7844 36.4306H24.9443V39.3097H30.7844C35.4854 39.3097 39.3102 35.485 39.3102 30.7838V19.216C39.3102 14.5148 35.4854 10.6902 30.7844 10.6902Z" fill="#EEEEEE"/>
<path d="M25.0004 17.5979C24.9815 17.5979 24.9632 17.5993 24.9443 17.5993V20.4784C24.963 20.4782 24.9815 20.477 25.0004 20.477C27.4983 20.477 29.5231 22.5019 29.5231 25C29.5231 27.498 27.4984 29.5228 25.0004 29.5228C24.9815 29.5228 24.963 29.5216 24.9443 29.5214V32.4005C24.9632 32.4007 24.9815 32.4019 25.0004 32.4019C29.0818 32.4019 32.4022 29.0814 32.4022 25C32.4022 20.9186 29.0818 17.5979 25.0004 17.5979Z" fill="#EEEEEE"/>
</svg>
