<svg width="35" height="35" viewBox="0 0 35 35" fill="none" xmlns="http://www.w3.org/2000/svg">
<path d="M17.5 35C27.165 35 35 27.165 35 17.5C35 7.83502 27.165 0 17.5 0C7.83502 0 0 7.83502 0 17.5C0 27.165 7.83502 35 17.5 35Z" fill="#6C27B3"/>
<path d="M35 17.5C35 20.7529 34.1121 23.7992 32.5658 26.4094C31.6029 28.0335 30.3844 29.4893 28.9657 30.7206C26.0286 33.2699 22.2342 34.8571 18.0722 34.9907C17.8821 34.9971 17.6915 35 17.5 35C17.3085 35 17.1179 34.9971 16.9278 34.9907C12.7864 34.8579 9.01009 33.2865 6.07918 30.7601C4.60491 29.4893 3.34507 27.9763 2.36134 26.2842C0.8601 23.7028 0 20.7014 0 17.5C0 14.4057 0.802956 11.4985 2.21207 8.97644C4.40865 5.04578 8.07709 2.04918 12.4713 0.733528C14.0636 0.256348 15.752 0 17.5 0C19.248 0 20.9364 0.256348 22.5287 0.733528C26.8935 2.04063 30.5428 5.00652 32.7436 8.89847C34.18 11.4384 35 14.3736 35 17.5Z" fill="url(#paint0_linear)"/>
<path d="M25.615 9.08642C23.5241 9.35111 21.344 9.34188 19.1499 9.13297C16.0859 8.89727 11.6078 7.48312 9.95799 10.3114C7.30756 14.8393 8.61479 20.6361 9.23242 25.766L18.443 34.9745C27.3562 34.5013 34.4996 27.3588 34.9744 18.4459L25.615 9.08642Z" fill="#501A96" fill-opacity="0.25"/>
<path d="M21.549 7.48315H13.4514C10.1606 7.48315 7.4834 10.1604 7.4834 13.4512V21.5487C7.4834 24.8394 10.1606 27.5168 13.4515 27.5168H21.549C24.8397 27.5168 27.5171 24.8395 27.5171 21.5487V13.4512C27.5171 10.1604 24.8398 7.48315 21.549 7.48315ZM25.5017 21.5488C25.5017 23.7318 23.732 25.5015 21.549 25.5015H13.4515C11.2685 25.5015 9.49884 23.7318 9.49884 21.5488V13.4513C9.49884 11.2683 11.2685 9.49852 13.4515 9.49852H21.549C23.732 9.49852 25.5017 11.2683 25.5017 13.4513V21.5488Z" fill="white"/>
<path d="M17.5001 12.3186C14.6431 12.3186 12.3186 14.6431 12.3186 17.5001C12.3186 20.3569 14.6431 22.6814 17.5001 22.6814C20.3571 22.6814 22.6814 20.3571 22.6814 17.5001C22.6814 14.6431 20.3571 12.3186 17.5001 12.3186ZM17.5001 20.666C15.7515 20.666 14.334 19.2487 14.334 17.5001C14.334 15.7515 15.7515 14.334 17.5001 14.334C19.2487 14.334 20.666 15.7514 20.666 17.5001C20.666 19.2487 19.2487 20.666 17.5001 20.666Z" fill="white"/>
<path d="M23.9332 12.3576C23.9332 13.0432 23.3773 13.5992 22.6916 13.5992C22.0059 13.5992 21.45 13.0432 21.45 12.3576C21.45 11.6719 22.0059 11.116 22.6916 11.116C23.3774 11.116 23.9332 11.6717 23.9332 12.3576Z" fill="#EEEEEE"/>
<path d="M21.549 7.48315H17.4609V9.49852H21.549C23.732 9.49852 25.5016 11.2683 25.5016 13.4513V21.5488C25.5016 23.7318 23.732 25.5015 21.549 25.5015H17.4609V27.5168H21.549C24.8396 27.5168 27.517 24.8395 27.517 21.5487V13.4512C27.517 10.1604 24.8397 7.48315 21.549 7.48315Z" fill="#EEEEEE"/>
<path d="M17.5002 12.3186C17.487 12.3186 17.4741 12.3196 17.4609 12.3196V14.3349C17.474 14.3348 17.487 14.334 17.5002 14.334C19.2487 14.334 20.6661 15.7514 20.6661 17.5001C20.6661 19.2487 19.2488 20.666 17.5002 20.666C17.487 20.666 17.474 20.6652 17.4609 20.6651V22.6804C17.4741 22.6806 17.487 22.6814 17.5002 22.6814C20.3572 22.6814 22.6815 20.3571 22.6815 17.5001C22.6815 14.6431 20.3572 12.3186 17.5002 12.3186Z" fill="#EEEEEE"/>
<defs>
<linearGradient id="paint0_linear" x1="17.5" y1="35" x2="17.5" y2="0" gradientUnits="userSpaceOnUse">
<stop stop-color="#FFD600"/>
<stop offset="0.5271" stop-color="#FF0095"/>
<stop offset="0.5802" stop-color="#F2069C"/>
<stop offset="0.6791" stop-color="#CF14B0"/>
<stop offset="0.813" stop-color="#962CCF"/>
<stop offset="0.9753" stop-color="#494DFA"/>
<stop offset="0.9951" stop-color="#3F51FF"/>
</linearGradient>
</defs>
</svg>
