<svg viewBox="0 0 50 50" fill="none" xmlns="http://www.w3.org/2000/svg">
<path fill-rule="evenodd" clip-rule="evenodd" d="M0 25C0 11.1929 11.1929 0 25 0C38.8071 0 50 11.1929 50 25C50 38.8071 38.8071 50 25 50C11.1929 50 0 38.8071 0 25Z" fill="#4C6C91"/>
<path fill-rule="evenodd" clip-rule="evenodd" d="M26.3079 33.2042C26.3079 33.2042 26.7891 33.1517 27.0356 32.8918C27.2613 32.6537 27.2534 32.2043 27.2534 32.2043C27.2534 32.2043 27.2235 30.1059 28.216 29.7961C29.1942 29.4914 30.4502 31.8253 31.7832 32.7228C32.7901 33.4013 33.5544 33.2528 33.5544 33.2528L37.1163 33.2042C37.1163 33.2042 38.9788 33.0915 38.0958 31.6538C38.0228 31.536 37.5806 30.5899 35.4482 28.6464C33.214 26.6121 33.5139 26.9411 36.2033 23.4217C37.8415 21.2785 38.4962 19.9701 38.2915 19.4106C38.0971 18.8754 36.892 19.0176 36.892 19.0176L32.8827 19.0419C32.8827 19.0419 32.5853 19.0022 32.3649 19.1315C32.1497 19.2582 32.0101 19.554 32.0101 19.554C32.0101 19.554 31.3762 21.2119 30.5298 22.6228C28.7442 25.5981 28.0308 25.7556 27.7386 25.5712C27.0591 25.1398 27.2287 23.8403 27.2287 22.9172C27.2287 20.0328 27.6747 18.8306 26.3613 18.5195C25.9257 18.4158 25.6049 18.348 24.4897 18.3365C23.0589 18.3224 21.8486 18.3416 21.1625 18.6706C20.706 18.8895 20.3539 19.3786 20.5691 19.4068C20.8338 19.4413 21.4338 19.5655 21.752 19.9906C22.1629 20.5398 22.1485 21.7714 22.1485 21.7714C22.1485 21.7714 22.3846 25.1667 21.5968 25.5879C21.0569 25.8772 20.316 25.287 18.7235 22.5869C17.9084 21.2042 17.2928 19.6756 17.2928 19.6756C17.2928 19.6756 17.1741 19.3901 16.9615 19.2365C16.7045 19.0508 16.3459 18.9932 16.3459 18.9932L12.5361 19.0176C12.5361 19.0176 11.9635 19.0329 11.7535 19.2774C11.567 19.4938 11.7392 19.9432 11.7392 19.9432C11.7392 19.9432 14.722 26.7939 18.1001 30.2468C21.1977 33.4116 24.714 33.2042 24.714 33.2042H26.3079Z" fill="white"/>
</svg>
