<svg width="35" height="35" viewBox="0 0 35 35" fill="none" xmlns="http://www.w3.org/2000/svg">
<g clip-path="url(#clip0)">
<path d="M17.5 35.0001C27.165 35.0001 35.0001 27.165 35.0001 17.5C35.0001 7.83503 27.165 0 17.5 0C7.83503 0 0 7.83503 0 17.5C0 27.165 7.83503 35.0001 17.5 35.0001Z" fill="#D42428"/>
<path d="M29.8739 5.12378C36.7081 11.9586 36.7087 23.0394 29.8739 29.8742C23.0397 36.7083 11.9583 36.7086 5.12354 29.8742L29.8739 5.12378Z" fill="#CC202D"/>
<path d="M34.6482 21.005L25.9869 12.344L15.7718 13.5071L9.59277 23.0731L21.1387 34.6187C27.927 33.1827 33.2638 27.813 34.6482 21.005Z" fill="#BA202E"/>
<path d="M26.6579 14.1229C26.6579 12.6559 25.4695 11.4668 24.0032 11.4668H11.5482C10.0823 11.4668 8.89404 12.6562 8.89404 14.1229V21.2453C8.89404 22.7124 10.0825 23.9014 11.5482 23.9014H24.003C25.4695 23.9014 26.6577 22.7121 26.6577 21.2453V14.1229H26.6579ZM15.999 20.6888V13.9991L21.0722 17.3441L15.999 20.6888Z" fill="white"/>
</g>
<defs>
<clipPath id="clip0">
<rect width="35" height="35" fill="white"/>
</clipPath>
</defs>
</svg>
