<svg width="50" height="50" viewBox="0 0 50 50" fill="none" xmlns="http://www.w3.org/2000/svg">
<g clip-path="url(#clip5)">
<path d="M25 50C38.8071 50 50 38.8071 50 25C50 11.1929 38.8071 0 25 0C11.1929 0 0 11.1929 0 25C0 38.8071 11.1929 50 25 50Z" fill="#2230A8"/>
<path d="M35.1798 14.8268C33.7303 14.4643 31.5986 13.2124 30.2188 12.7105C24.8316 11.027 17.5926 12.3738 15.5724 18.6028C15.404 18.7712 15.0673 18.7712 14.8989 18.7712C10.8585 23.485 13.5521 29.2089 13.2154 34.4277C13.1005 36.2675 12.1331 37.8942 10.8882 39.2703L21.3649 49.7361C22.5519 49.909 23.7651 50.0001 25 50.0001C37.3473 50.0001 47.6027 41.0484 49.6335 29.2812L35.1798 14.8268Z" fill="#09157C"/>
<path d="M24.3007 10.5904C16.6807 10.9529 10.6675 17.299 10.6905 24.9274C10.6975 27.2509 11.2585 29.4439 12.2481 31.382L10.7289 38.7564C10.6467 39.1555 11.0065 39.5048 11.4028 39.4108L18.6289 37.6989C20.4854 38.6238 22.5707 39.1578 24.7775 39.1915C32.5659 39.3105 39.0598 33.1266 39.3029 25.341C39.5629 16.9955 32.6752 10.1915 24.3007 10.5904ZM32.9231 32.8061C30.807 34.9223 27.9931 36.0878 25.0003 36.0878C23.2479 36.0878 21.57 35.6945 20.0133 34.9192L19.0073 34.4179L14.5766 35.4674L15.5091 30.9404L15.0135 29.9694C14.2053 28.3868 13.7956 26.6757 13.7956 24.8831C13.7956 21.8901 14.9611 19.0766 17.0772 16.9602C19.1745 14.8628 22.0341 13.6786 25.0005 13.6786C27.993 13.6786 30.8069 14.8441 32.923 16.9602C35.0391 19.0764 36.2047 21.8902 36.2047 24.8828C36.2048 27.8492 35.0205 30.7088 32.9231 32.8061Z" fill="white"/>
<path d="M31.945 27.9865L29.1732 27.1907C28.809 27.0863 28.4164 27.1897 28.1509 27.4602L27.473 28.1506C27.1872 28.442 26.7536 28.5355 26.3753 28.3825C25.0641 27.8518 22.3058 25.3993 21.6018 24.1729C21.3983 23.819 21.432 23.3768 21.6816 23.0536L22.2732 22.288C22.505 21.9882 22.5538 21.5852 22.4006 21.2385L21.2345 18.601C20.9552 17.9694 20.148 17.7854 19.6205 18.2315C18.847 18.8859 17.9291 19.8799 17.8177 20.9815C17.6209 22.9236 18.4539 25.3715 21.603 28.3111C25.2414 31.7074 28.1552 32.1557 30.0526 31.6962C31.1286 31.4358 31.9886 30.3911 32.531 29.5355C32.9012 28.9518 32.6086 28.1772 31.945 27.9865Z" fill="white"/>
<path d="M34.7657 14.4246L32.5955 16.649C32.706 16.751 32.8159 16.8537 32.9228 16.9606C35.039 19.0767 36.2044 21.8906 36.2044 24.8832C36.2044 27.8495 35.02 30.7089 32.9228 32.8064C30.8066 34.9225 27.9928 36.088 24.9999 36.088C23.2476 36.088 21.5697 35.6948 20.013 34.9195L19.0069 34.4181L14.5763 35.4676L14.6679 35.023L10.7446 39.0437C10.8312 39.3038 11.1064 39.4807 11.4022 39.4107L18.6283 37.6988C20.4849 38.6237 22.5701 39.1577 24.777 39.1914C32.5653 39.3104 39.0595 33.1264 39.3023 25.3409C39.4366 21.0309 37.6644 17.1323 34.7657 14.4246Z" fill="#E5E5E5"/>
<path d="M31.9444 27.9865L29.1726 27.1907C28.8084 27.0863 28.4158 27.1897 28.1503 27.4602L27.4724 28.1506C27.1866 28.442 26.753 28.5355 26.3747 28.3825C25.6173 28.0759 24.3775 27.1281 23.3293 26.1458L21.4023 28.1208C21.4685 28.1841 21.5344 28.2473 21.6025 28.3111C25.2409 31.7074 28.1547 32.1557 30.052 31.6962C31.1281 31.4358 31.9881 30.3911 32.5305 29.5355C32.9006 28.9518 32.608 28.1772 31.9444 27.9865Z" fill="#E5E5E5"/>
</g>
<defs>
<clipPath id="clip5">
<rect width="50" height="50" fill="white"/>
</clipPath>
</defs>
</svg>
