<svg width="50" height="50" viewBox="0 0 50 50" fill="none" xmlns="http://www.w3.org/2000/svg">
<g clip-path="url(#clip6)">
<path d="M41.0547 49.1406C30.3613 50.2832 19.6387 50.2832 8.94531 49.1406C4.67773 48.6816 1.30859 45.3223 0.859375 41.0547C-0.283203 30.3613 -0.283203 19.6387 0.859375 8.94531C1.31836 4.67773 4.6875 1.30859 8.94531 0.859375C19.6387 -0.283203 30.3613 -0.283203 41.0547 0.859375C45.3223 1.31836 48.6914 4.6875 49.1406 8.94531C50.2832 19.6387 50.2832 30.3613 49.1406 41.0547C48.6914 45.3223 45.3223 48.6914 41.0547 49.1406Z" fill="#FFFCF8"/>
<path d="M58.1445 37.8906C58.1152 37.8906 29.707 9.47266 29.707 9.47266H24.9316V23.9062L21.9238 20.8789C21.4746 20.8105 21.0156 20.7715 20.5469 20.7715C18.0957 20.7715 15.8008 21.7285 14.0723 23.457C12.3438 25.1855 11.3867 27.4902 11.3867 29.9316C11.3867 32.373 12.3438 34.6777 14.0723 36.4062L35.039 57.373C36.7578 59.1016 39.0625 60.0586 41.5039 60.0586C41.9726 60.0586 42.4316 60.0195 42.8808 59.9609C44.8047 59.668 46.582 58.7793 47.9785 57.3828C49.6972 55.6641 50.6543 53.3789 50.664 50.9473L50.6738 40.1367C51.5039 40.7812 52.4121 41.3086 53.3789 41.7188C54.8926 42.3535 56.4941 42.6855 58.1445 42.6855C58.1445 42.6758 58.1445 37.8906 58.1445 37.8906Z" fill="url(#paint3_linear)"/>
<path d="M41.0547 49.1406C30.3613 50.2832 19.6387 50.2832 8.94531 49.1406C4.67773 48.6816 1.30859 45.3223 0.859375 41.0547C-0.283203 30.3613 -0.283203 19.6387 0.859375 8.94531C1.31836 4.67773 4.6875 1.30859 8.94531 0.859375C19.6387 -0.283203 30.3613 -0.283203 41.0547 0.859375C45.3223 1.31836 48.6914 4.6875 49.1406 8.94531C50.2832 19.6387 50.2832 30.3613 49.1406 41.0547C48.6914 45.3223 45.3223 48.6914 41.0547 49.1406Z" fill="url(#paint1_linear)"/>
<path d="M32.6758 15.4102C31.7285 14.1602 31.1621 12.6074 31.1621 10.918H31.1426V10.9082H29.8633C30.2246 12.7344 31.2402 14.3262 32.6758 15.4102Z" fill="#F00044"/>
<path d="M20.5469 25.5566C18.125 25.5566 16.1719 27.5195 16.1719 29.9316C16.1719 31.5039 17.002 32.8906 18.252 33.6621C17.8418 32.998 17.6074 32.207 17.6074 31.3672C17.6074 28.9453 19.5703 26.9922 21.9824 26.9922C22.4609 26.9922 22.9297 27.0703 23.3594 27.2168V22.3145C22.9102 22.2461 22.4512 22.207 21.9824 22.207C21.9629 22.207 21.9434 22.207 21.9238 22.207V25.7813C21.4844 25.6348 21.0254 25.5566 20.5469 25.5566Z" fill="#F00044"/>
<path d="M38.6133 18.3594C38.125 18.3594 37.6465 18.3105 37.1875 18.2227V21.709C35.5371 21.709 33.9356 21.3867 32.4219 20.7422C31.4453 20.332 30.5469 19.8047 29.7168 19.1602V29.9707H29.707C29.6973 32.4023 28.75 34.6875 27.0215 36.4062C25.625 37.8027 23.8477 38.7012 21.9238 38.9844C21.4746 39.0527 21.0156 39.082 20.5469 39.082C18.4375 39.082 16.4453 38.3789 14.8242 37.0801C15.0391 37.3438 15.2637 37.5977 15.498 37.8418C17.2266 39.5801 19.5313 40.5273 21.9727 40.5273C22.4414 40.5273 22.9004 40.4883 23.3496 40.4297C25.2734 40.1367 27.0508 39.248 28.4473 37.8516C30.166 36.1328 31.1231 33.8477 31.1328 31.416H31.1426V20.5957C31.9727 21.2402 32.8809 21.7676 33.8477 22.1777C35.3613 22.8223 36.9629 23.1445 38.6133 23.1445V18.3594Z" fill="url(#paint2_linear)"/>
<path d="M37.1777 18.2227V16.9238C35.4883 16.9238 33.9258 16.3574 32.6758 15.4102C33.7598 16.8359 35.3516 17.8613 37.1777 18.2227Z" fill="#08FFF9"/>
<path d="M21.9727 35.7422C22.4512 35.7422 22.9199 35.6641 23.3496 35.5176C25.0879 34.9414 26.3477 33.3008 26.3477 31.3672L26.3574 24.1211V10.9082H29.8633C29.7754 10.4492 29.7266 9.9707 29.7266 9.48242H29.707V9.47266H24.9316V22.6953L24.9219 29.9414C24.9219 31.875 23.6621 33.5156 21.9238 34.0918C21.4941 34.2383 21.0254 34.3164 20.5469 34.3164C19.707 34.3164 18.916 34.082 18.252 33.6719C19.0234 34.9121 20.4004 35.7422 21.9727 35.7422Z" fill="url(#paint3_linear)"/>
<path d="M15.498 24.8926C17.2168 23.1738 19.4922 22.2266 21.9141 22.207V20.8789C21.4648 20.8105 21.0059 20.7715 20.5371 20.7715C18.0859 20.7715 15.791 21.7285 14.0625 23.457C12.334 25.1856 11.377 27.4902 11.377 29.9316C11.377 32.3731 12.334 34.6777 14.0625 36.4063C14.3066 36.6504 14.5605 36.875 14.8242 37.0801C13.5254 35.459 12.8223 33.4668 12.8223 31.3574C12.8223 28.9258 13.7695 26.6211 15.498 24.8926Z" fill="#08FFF9"/>
<path d="M21.9141 38.9941C23.8379 38.7012 25.6152 37.8125 27.0117 36.416C28.7305 34.6973 29.6875 32.4121 29.6973 29.9805H29.707V19.1602C30.5371 19.8047 31.4453 20.332 32.4121 20.7422C33.9258 21.3867 35.5273 21.709 37.1777 21.709V18.2227C35.3516 17.8711 33.7598 16.8457 32.666 15.4102C31.2402 14.3262 30.2148 12.7344 29.8535 10.9082H26.3477V24.1309L26.3379 31.377C26.3379 33.3105 25.0781 34.9512 23.3398 35.5273C22.9102 35.6738 22.4414 35.752 21.9629 35.752C20.3906 35.752 19.0039 34.9219 18.2324 33.6719C16.9824 32.9004 16.1523 31.5234 16.1523 29.9414C16.1523 27.5195 18.1152 25.5664 20.5273 25.5664C21.0059 25.5664 21.4746 25.6445 21.9043 25.791V22.2266C19.4824 22.2363 17.207 23.1934 15.4883 24.9121C13.7598 26.6406 12.8027 28.9453 12.8027 31.3867C12.8027 33.4863 13.5059 35.4883 14.8047 37.1094C16.4258 38.4082 18.418 39.1113 20.5273 39.1113C21.0059 39.0918 21.4648 39.0625 21.9141 38.9941Z" fill="black"/>
</g>
<defs>
<linearGradient id="paint3_linear" x1="16.6753" y1="17.7222" x2="52.1567" y2="53.2036" gradientUnits="userSpaceOnUse">
<stop stop-color="#B7C1CE"/>
<stop offset="1" stop-color="#B8C1CF" stop-opacity="0"/>
</linearGradient>
<linearGradient id="paint1_linear" x1="25.0005" y1="40.6326" x2="25.0005" y2="49.08" gradientUnits="userSpaceOnUse">
<stop stop-color="#94A1B2" stop-opacity="0"/>
<stop offset="1" stop-color="#94A1B2"/>
</linearGradient>
<linearGradient id="paint2_linear" x1="23.9097" y1="24.9556" x2="32.626" y2="33.6719" gradientUnits="userSpaceOnUse">
<stop stop-color="#F00044"/>
<stop offset="1" stop-color="#C70038"/>
</linearGradient>
<linearGradient id="paint3_linear" x1="18.3637" y1="16.0338" x2="30.9324" y2="28.6025" gradientUnits="userSpaceOnUse">
<stop stop-color="#08FFF9"/>
<stop offset="1" stop-color="#07D4CF"/>
</linearGradient>
<clipPath id="clip6">
<rect width="50" height="50" rx="25"  fill="white"/>
</clipPath>
</defs>
</svg>
