<svg width="50" height="50" viewBox="0 0 50 50" fill="none" xmlns="http://www.w3.org/2000/svg">
<g clip-path="url(#clip0)">
<path d="M25.0001 50.0001C38.8072 50.0001 50.0001 38.8072 50.0001 25.0001C50.0001 11.1929 38.8072 0 25.0001 0C11.1929 0 0 11.1929 0 25.0001C0 38.8072 11.1929 50.0001 25.0001 50.0001Z" fill="#D42428"/>
<path d="M42.677 7.31958C52.4401 17.0836 52.441 32.9133 42.677 42.6773C32.9139 52.4404 17.0833 52.4408 7.31934 42.6773L42.677 7.31958Z" fill="#CC202D"/>
<path d="M49.4976 30.0072L37.1243 17.6343L22.5312 19.2958L13.7041 32.9615L30.1983 49.4553C39.8959 47.4038 47.5199 39.7329 49.4976 30.0072Z" fill="#BA202E"/>
<path d="M38.0826 20.1758C38.0826 18.08 36.3848 16.3813 34.2901 16.3813H16.4973C14.4031 16.3813 12.7056 18.0804 12.7056 20.1758V30.3507C12.7056 32.4465 14.4034 34.1451 16.4973 34.1451H34.2898C36.3849 34.1451 38.0823 32.446 38.0823 30.3507V20.1758H38.0826ZM22.8556 29.5556V19.999L30.1029 24.7775L22.8556 29.5556Z" fill="white"/>
</g>
<defs>
<clipPath id="clip0">
<rect width="50" height="50" fill="white"/>
</clipPath>
</defs>
</svg>
