<svg width="50" height="50" viewBox="0 0 50 50" fill="none" xmlns="http://www.w3.org/2000/svg">
<g clip-path="url(#clip0)">
<rect width="50" height="50" rx="25" fill="#28348A"/>
<path d="M58.7578 37.5C58.7285 37.5 30.5 10 30.5 10L26.9902 11V26L22.5371 21.4062C22.0879 21.3379 21.6289 21.2988 21.1602 21.2988C18.709 21.2988 16.4141 22.2559 14.6855 23.9844C12.957 25.7129 12 28.0176 12 30.459C12 32.9004 12.957 35.2051 14.6855 36.9336L35.6523 57.9004C37.3711 59.6289 39.6758 60.5859 42.1172 60.5859C42.5859 60.5859 43.0449 60.5469 43.4941 60.4883C45.4179 60.1953 47.1953 59.3066 48.5918 57.9102C50.3105 56.1914 51.2676 53.9062 51.2773 51.4746L51.2871 40.6641C52.1172 41.3086 53.0254 41.8359 53.9922 42.2461C55.5058 42.8809 57.1074 43.2129 58.7578 43.2129C58.7578 43.2031 58.7578 37.5 58.7578 37.5Z" fill="#0F1869"/>
<path d="M38.1439 17.5229C36.4318 17.5229 34.8521 16.9558 33.5835 15.9989C32.1287 14.9021 31.0833 13.2931 30.7142 11.4386C30.6228 10.9804 30.5736 10.5075 30.5689 10.0229H25.6781V23.387L25.6722 30.7071C25.6722 32.6642 24.3978 34.3235 22.6312 34.9071C22.1185 35.0765 21.5648 35.1567 20.9882 35.1251C20.2523 35.0847 19.5626 34.8626 18.9632 34.504C17.6876 33.7411 16.8228 32.3571 16.7994 30.7739C16.7624 28.2995 18.7628 26.2821 21.2355 26.2821C21.7236 26.2821 22.1923 26.3618 22.6312 26.5065V22.8538V21.5407C22.1683 21.4722 21.6972 21.4364 21.2208 21.4364C18.5144 21.4364 15.9831 22.5614 14.1738 24.5882C12.8062 26.1198 11.9859 28.0739 11.8593 30.1229C11.6935 32.8147 12.6785 35.3735 14.5886 37.2614C14.8693 37.5386 15.164 37.7958 15.4722 38.0331C17.1099 39.2935 19.112 39.9767 21.2208 39.9767C21.6972 39.9767 22.1683 39.9415 22.6312 39.8729C24.6011 39.5812 26.4187 38.6794 27.8531 37.2614C29.6156 35.5194 30.5894 33.2067 30.5999 30.7452L30.5747 19.814C31.4156 20.4626 32.3349 20.9993 33.3216 21.4159C34.8562 22.0634 36.4833 22.3915 38.1579 22.3909V18.8396V17.5218C38.1591 17.5229 38.1451 17.5229 38.1439 17.5229Z" fill="white"/>
</g>
<defs>
<clipPath id="clip0">
<rect width="50" height="50" rx="25" fill="white"/>
</clipPath>
</defs>
</svg>
