<svg width="50" height="50" viewBox="0 0 50 50" fill="none" xmlns="http://www.w3.org/2000/svg">
<g clip-path="url(#clip0)">
<rect width="50" height="50" rx="25" fill="#28348A"/>
<path d="M15.5 25.5L12.2693 19.5L22.5 26.5V19L22 18.5H26.5L27.5001 26H28.7693L38 19L51 31L50.5 43L36.5 47.5C36.5 47.5 21.5001 32 20 31C18.5 30 15.5 25.5 15.5 25.5Z" fill="#0F1869"/>
<path fill-rule="evenodd" clip-rule="evenodd" d="M26.6411 32.8709C26.6411 32.8709 27.1224 32.8184 27.3689 32.5585C27.5945 32.3204 27.5867 31.871 27.5867 31.871C27.5867 31.871 27.5567 29.7727 28.5492 29.4629C29.5275 29.1581 30.7835 31.4921 32.1164 32.3895C33.1233 33.0681 33.8876 32.9196 33.8876 32.9196L37.4496 32.8709C37.4496 32.8709 39.3121 32.7583 38.4291 31.3205C38.356 31.2027 37.9139 30.2566 35.7814 28.3132C33.5472 26.2788 33.8472 26.6079 36.5366 23.0884C38.1747 20.9453 38.8295 19.6368 38.6247 19.0773C38.4304 18.5422 37.2252 18.6843 37.2252 18.6843L33.2159 18.7086C33.2159 18.7086 32.9185 18.6689 32.6981 18.7982C32.4829 18.925 32.3434 19.2207 32.3434 19.2207C32.3434 19.2207 31.7095 20.8787 30.863 22.2895C29.0775 25.2649 28.364 25.4223 28.0719 25.238C27.3924 24.8065 27.5619 23.5071 27.5619 22.584C27.5619 19.6996 28.008 18.4974 26.6946 18.1863C26.259 18.0826 25.9381 18.0147 24.823 18.0032C23.3922 17.9891 22.1818 18.0083 21.4958 18.3374C21.0393 18.5563 20.6871 19.0453 20.9023 19.0735C21.1671 19.1081 21.7671 19.2323 22.0853 19.6573C22.4961 20.2065 22.4818 21.4382 22.4818 21.4382C22.4818 21.4382 22.7179 24.8334 21.9301 25.2546C21.3901 25.544 20.6493 24.9538 19.0568 22.2537C18.2416 20.871 17.626 19.3424 17.626 19.3424C17.626 19.3424 17.5073 19.0569 17.2947 18.9032C17.0378 18.7176 16.6791 18.66 16.6791 18.66L12.8693 18.6843C12.8693 18.6843 12.2968 18.6997 12.0868 18.9442C11.9003 19.1606 12.0724 19.6099 12.0724 19.6099C12.0724 19.6099 15.0553 26.4606 18.4334 29.9135C21.531 33.0783 25.0473 32.8709 25.0473 32.8709H26.6411Z" fill="white"/>
</g>
<defs>
<clipPath id="clip0">
<rect width="50" height="50" rx="25" fill="white"/>
</clipPath>
</defs>
</svg>
