<svg width="50" height="50" viewBox="0 0 50 50" fill="none" xmlns="http://www.w3.org/2000/svg">
<path d="M25 50C38.8071 50 50 38.8071 50 25C50 11.1929 38.8071 0 25 0C11.1929 0 0 11.1929 0 25C0 38.8071 11.1929 50 25 50Z" fill="#41B4E6"/>
<path d="M49.9926 24.4216L38.8948 13.3423L20.8179 35.3765L33.8339 48.3925C43.281 44.823 50 35.6968 50 25C50 24.8065 49.997 24.6138 49.9926 24.4216Z" fill="#0091C8"/>
<path d="M37.4724 13.0392C38.4691 12.6503 39.4993 13.5224 39.2805 14.5695L34.8108 35.9348C34.602 36.9365 33.4252 37.3876 32.6003 36.7816L25.8529 31.8288L22.4135 35.3406C21.8091 35.9568 20.767 35.7059 20.5077 34.8843L18.0263 27.0072L11.3747 25.0425C10.501 24.7849 10.4505 23.5695 11.2973 23.2378L37.4724 13.0392ZM34.1912 17.7799C34.4825 17.5223 34.1441 17.0678 33.8141 17.2732L19.4572 26.1772C19.2046 26.3337 19.0885 26.6418 19.1777 26.9263L21.1356 35.524C21.1744 35.6553 21.3628 35.6368 21.3797 35.5004L21.8174 28.9483C21.8342 28.7867 21.9117 28.6385 22.0329 28.5308L34.1912 17.7799Z" fill="white"/>
<path d="M33.8141 17.273C34.1441 17.0676 34.4825 17.5221 34.1912 17.7797L22.0331 28.5306C21.9119 28.6383 21.8344 28.7864 21.8175 28.9481L21.3798 35.5002C21.363 35.6365 21.1745 35.6551 21.1357 35.5238L19.1778 26.9261C19.0885 26.6416 19.2047 26.3335 19.4573 26.177L33.8141 17.273Z" fill="#9EC2E5"/>
<path d="M21.2064 35.6131C20.8899 35.5004 20.6222 35.2478 20.5078 34.8841L18.0263 27.007L11.3747 25.0423C10.501 24.7847 10.4505 23.5693 11.2973 23.2377L37.4723 13.0391C38.1154 12.7882 38.7737 13.0626 39.0986 13.5711C39.0379 13.4786 38.9656 13.3927 38.8848 13.3169L21.1272 27.8135V28.4482L21.0295 28.3775L21.1272 32.3742V35.5796C21.1525 35.5914 21.1793 35.6014 21.2063 35.6098V35.6131H21.2064Z" fill="white"/>
<path d="M39.3093 14.2108C39.3143 14.3253 39.3059 14.4465 39.2806 14.5694L34.8109 35.9348C34.6021 36.9364 33.4254 37.3876 32.6005 36.7815L25.853 31.8287L21.1274 28.4482V27.8136L38.885 13.3169C38.9658 13.3927 39.0383 13.4785 39.0988 13.5711C39.1106 13.5913 39.1223 13.6098 39.1342 13.6283C39.1442 13.6485 39.156 13.6688 39.1662 13.6872C39.1763 13.7074 39.1864 13.7276 39.1948 13.7479C39.2049 13.7697 39.2134 13.7899 39.2218 13.8118C39.2285 13.8304 39.2369 13.8505 39.2436 13.8725C39.2655 13.9381 39.2823 14.0055 39.2941 14.0762C39.3009 14.1199 39.3059 14.1638 39.3093 14.2108Z" fill="#D1D1D1"/>
<path d="M25.8529 31.8286L22.4136 35.3404C22.385 35.369 22.3547 35.3976 22.3243 35.4229C22.294 35.4482 22.2637 35.4701 22.2317 35.492C22.2301 35.4936 22.2301 35.4936 22.2301 35.4936C22.1661 35.5357 22.1005 35.5711 22.0314 35.5997C21.9961 35.6132 21.9624 35.6267 21.9271 35.6351C21.7806 35.6788 21.6308 35.6906 21.4826 35.6755C21.4439 35.6722 21.4052 35.6654 21.3682 35.6587C21.3631 35.6587 21.3581 35.657 21.353 35.6554C21.316 35.6453 21.2789 35.6351 21.2419 35.6233C21.2301 35.62 21.2184 35.6166 21.2065 35.6099L21.1274 32.3742V28.4482L25.8529 31.8286Z" fill="#D1D1D1"/>
<path d="M22.324 35.4229C22.2938 35.4481 22.2634 35.4717 22.2314 35.4936V35.4919C22.2635 35.47 22.2938 35.4481 22.324 35.4229Z" fill="#DADDE0"/>
<path d="M22.2328 35.4919V35.4948C22.2328 35.4948 22.2328 35.4919 22.23 35.4948C22.23 35.4948 22.23 35.4948 22.2328 35.4919Z" fill="#DADDE0"/>
<path d="M22.0312 35.5997C22.1003 35.5711 22.1659 35.5357 22.2299 35.4937C22.1659 35.5356 22.0985 35.571 22.0312 35.5997Z" fill="#DADDE0"/>
<path d="M21.4824 35.6754C21.6306 35.6906 21.7804 35.6788 21.9269 35.635C21.8208 35.6687 21.7113 35.6838 21.602 35.6838C21.5683 35.6838 21.5346 35.6822 21.5026 35.6788C21.4959 35.6789 21.4892 35.6789 21.4824 35.6754Z" fill="#DADDE0"/>
<path d="M21.6022 35.6838C21.5686 35.6838 21.5349 35.6821 21.5029 35.6787C21.5349 35.6821 21.5686 35.6838 21.6022 35.6838Z" fill="white"/>
<path d="M21.4826 35.6754C21.4894 35.6788 21.4961 35.6788 21.5028 35.6788C21.4675 35.6771 21.4354 35.672 21.4019 35.6653C21.4287 35.6705 21.4557 35.6738 21.4826 35.6754Z" fill="white"/>
<path d="M21.4826 35.6755C21.4557 35.6738 21.4287 35.6704 21.4019 35.6654C21.39 35.6638 21.3783 35.6621 21.3682 35.6587C21.4052 35.6654 21.4438 35.6722 21.4826 35.6755Z" fill="#DADDE0"/>
<path d="M21.2417 35.6233C21.2787 35.6351 21.3158 35.6452 21.3528 35.6553C21.3377 35.652 21.3226 35.6486 21.3074 35.6453C21.3007 35.6436 21.2939 35.6419 21.2889 35.6385C21.2736 35.6351 21.2568 35.63 21.2417 35.6233Z" fill="#DADDE0"/>
<path d="M21.3076 35.645C21.3228 35.6483 21.3379 35.6518 21.353 35.6551C21.3379 35.6534 21.3228 35.6501 21.3076 35.645Z" fill="white"/>
<path d="M21.242 35.6231C21.2571 35.6299 21.274 35.635 21.2892 35.6383C21.2639 35.6332 21.2387 35.6248 21.2134 35.6147C21.2234 35.6181 21.2318 35.6215 21.242 35.6231Z" fill="white"/>
<path d="M21.2419 35.6232C21.2318 35.6216 21.2233 35.6182 21.2133 35.6148C21.2116 35.6165 21.2082 35.6148 21.2065 35.6132V35.6099C21.2183 35.6165 21.2301 35.6198 21.2419 35.6232Z" fill="#DADDE0"/>
<path d="M21.1274 32.374L21.2065 35.6097C21.1796 35.6013 21.1526 35.5911 21.1274 35.5794V32.374Z" fill="#D1D1D1"/>
<path d="M21.1274 28.4481V32.3741L21.0298 28.3774L21.1274 28.4481Z" fill="#DADDE0"/>
<path d="M34.1913 17.7797L22.0331 28.5305C21.9119 28.6383 21.8344 28.7864 21.8175 28.948L21.3806 35.5008C21.3638 35.6371 21.1752 35.6556 21.1348 35.5243L19.1778 26.9261C19.0885 26.6417 19.2047 26.3336 19.4573 26.177L33.8142 17.273C34.1442 17.0675 34.4826 17.5221 34.1913 17.7797Z" fill="#ADBCC9"/>
</svg>
