<svg viewBox="0 0 39 49" xmlns="http://www.w3.org/2000/svg">
<path d="M12.1511 17.3247L15.6231 16.7472V15.881L17.0697 13.2823L19.6737 12.7048L20.2524 11.5499L20.5417 10.1061L21.1203 8.95117H21.699L22.8563 9.23991H23.435L24.0136 10.1061L23.1457 11.2611L22.2777 11.8386L21.9883 13.2823L22.2777 13.8598L23.435 15.5923L22.567 18.4797L24.5923 19.6347L27.1963 22.5221L28.6429 25.6983L28.9323 30.0294L28.0643 33.4943L26.3283 36.093L24.0136 38.4029L20.831 40.1354L16.2017 41.0016L11.5725 40.4241L7.23252 37.8255L3.47124 33.4943L2.89258 27.4307L4.62856 22.8108L7.52185 19.3459L12.1511 17.3247Z" fill="white"/>
<path d="M12.8806 18.4851C9.97826 19.2138 7.63109 20.8957 6.12891 23.0665C6.12891 23.0665 7.99644 23.1043 10.1232 21.4412C10.3375 21.2732 10.6253 21.1958 10.9028 21.1505C12.2479 20.9297 13.1969 22.572 14.5603 22.6512C15.1298 22.6833 15.6686 22.4323 16.1809 22.2001C17.1626 21.7603 18.2566 21.362 19.3139 21.5979C20.0894 21.7716 20.7324 22.268 21.3039 22.7796C21.6835 23.1232 22.0509 23.4818 22.3223 23.9028C22.853 24.7201 22.9918 25.7489 22.6938 26.6607C22.3713 27.6517 21.5569 28.5748 21.7488 29.596C21.859 30.1831 22.2897 30.6682 22.5611 31.21C23.1081 32.2897 23.0469 33.6791 22.2448 34.6097C20.9855 36.0708 21.8182 38.1227 21.8182 38.1227C21.8182 38.1227 22.1182 37.9547 22.2652 37.8678C26.3737 35.3912 28.4862 30.6644 27.135 26.051C25.4573 20.32 19.0771 16.9354 12.8806 18.4851Z" fill="#28348A"/>
<path d="M23.4431 18.2403C23.6533 17.4965 23.8942 16.6924 24.0146 16.4451L24.5473 15.3314L23.6942 14.4026C23.3329 14.01 22.9349 13.6948 22.5206 13.4399L22.9369 12.0751L23.137 12.0242L24.6657 9.9043L23.4513 8.82265L23.0023 9.15866L20.6326 8.10156L19.8346 10.6631L19.953 11.0671L19.2611 12.4546C18.2957 12.3828 17.5874 12.4848 17.5201 12.4961L16.4404 12.6641L15.973 13.5815C15.5566 14.3951 15.3199 15.388 15.1831 16.1789C14.23 16.2261 13.2748 16.3677 12.3298 16.6037C8.79066 17.489 5.83731 19.5994 4.01264 22.5385C2.18593 25.4814 1.70833 28.9038 2.66965 32.177C3.62689 35.4503 5.90875 38.1836 9.08661 39.8731C11.197 40.9906 13.5319 41.5626 15.8975 41.5626C17.1017 41.5626 18.312 41.4134 19.506 41.1152C26.8128 39.2823 31.1459 32.2978 29.1682 25.5399C28.2824 22.5083 26.2618 19.943 23.4431 18.2403ZM20.5041 11.8316L21.0613 11.8618L20.7122 10.6726L20.902 10.061L21.5919 10.4385L21.4041 9.31534L22.3838 9.75328L22.5941 10.4725L23.4023 9.86654L23.5717 10.0176L22.6614 11.2785L22.3144 11.4239L22.2532 11.439L22.2491 11.4503L21.7552 11.658L22.1471 11.7825L21.7613 13.0473C21.2123 12.8075 20.6551 12.6584 20.1326 12.564L20.5041 11.8316ZM19.1753 39.9845C15.9628 40.7905 12.6033 40.3903 9.71524 38.8575C8.2702 38.0911 7.03131 37.0888 6.0455 35.9052C5.05764 34.7235 4.32492 33.3587 3.89018 31.8731C3.01867 28.9019 3.4534 25.7948 5.10867 23.1237C6.76393 20.4526 9.44787 18.5385 12.6604 17.7344C13.4483 17.5381 14.2402 17.4116 15.0362 17.3606C15.3362 17.3399 16.1832 17.3323 16.3057 17.3361C16.3261 17.0813 16.3751 16.6565 16.4669 16.1695C16.5914 15.505 16.7935 14.7198 17.118 14.0836L17.3037 13.7212L17.7303 13.6551C17.8589 13.6362 20.9163 13.1907 22.7308 15.1653L23.0696 15.5315L22.8573 15.9751C22.7165 16.2658 22.5042 16.9529 22.3104 17.6268C22.1859 18.0553 22.0695 18.4819 21.9858 18.7953C22.0328 18.816 22.0756 18.8406 22.1205 18.8632C22.4634 19.0463 22.7982 19.2426 23.1166 19.4503C25.4841 20.9925 27.1823 23.2294 27.9476 25.8476C29.7458 31.9807 25.8107 38.3233 19.1753 39.9845Z" fill="#28348A"/>
<path d="M18.3633 17.5526C19.3308 17.732 20.2778 18.0189 21.1861 18.4134C21.1922 18.134 21.3167 17.6942 21.4698 17.2468C21.7371 16.4653 22.1004 15.6612 22.1004 15.6612C20.5656 13.9925 17.8715 14.4096 17.8715 14.4096C17.5918 14.9589 17.4326 15.6423 17.3449 16.2256C17.3449 16.2312 17.3428 16.2369 17.3428 16.2407C17.2469 16.8598 17.7021 17.4299 18.3633 17.5526Z" fill="#28348A"/>
<path d="M18.2667 26.0983L18.726 25.9529C19.1974 25.8038 19.4526 25.3357 19.3158 24.8921C19.1158 24.2446 18.7362 23.8048 18.2606 23.7576C17.4483 23.6821 16.6645 24.7863 16.5094 26.2266C16.3543 27.6669 16.8829 28.8939 17.6953 28.9694C18.3484 29.0299 18.9933 28.3144 19.2913 27.2762L18.2014 26.4173C18.081 26.3248 18.1178 26.1455 18.2667 26.0983Z" fill="#28348A"/>
<path d="M11.1232 25.9225L11.5824 25.7771C12.0539 25.628 12.309 25.1599 12.1723 24.7163C11.9722 24.0688 11.5926 23.629 11.1171 23.5818C10.3047 23.5063 9.52099 24.6106 9.36588 26.0509C9.21076 27.4912 9.73938 28.7181 10.5517 28.7937C11.2048 28.8541 11.8498 28.1386 12.1478 27.1004L11.0579 26.2415C10.9375 26.149 10.9742 25.9697 11.1232 25.9225Z" fill="#28348A"/>
<path d="M19.2512 30.5589C18.0592 29.632 16.7061 30.2663 15.2753 30.9383C14.6487 31.2328 14.0017 31.5367 13.3159 31.7443C12.5995 31.9614 12.3036 31.9841 11.9301 32.0124C11.7076 32.0294 11.4566 32.0482 11.0973 32.1086C10.1871 32.2672 9.60332 32.5919 9.3135 33.1053C8.99714 33.6641 9.06449 34.389 9.51964 35.3234C9.78905 35.8765 10.3442 36.3012 11.1259 36.5541C11.7096 36.7429 12.4118 36.8335 13.1669 36.8335C14.714 36.8335 16.4918 36.4522 17.9531 35.7556C19.3961 35.0666 20.2615 34.0926 20.3921 33.0128C20.5023 32.1011 20.086 31.2063 19.2512 30.5589ZM13.5792 32.4862C13.867 32.3993 14.1466 32.2936 14.4201 32.1842C14.6671 33.2262 15.2386 34.9874 15.4978 35.7708C14.9447 35.8991 14.3854 35.9841 13.8466 36.0256L12.5955 32.7259C12.8465 32.6844 13.1506 32.6164 13.5792 32.4862ZM11.2545 32.8769C11.4423 32.8448 11.5954 32.826 11.7341 32.8128L12.9628 36.0482C12.5689 36.0388 12.1975 36.001 11.8607 35.9312L10.7422 33.0015C10.8912 32.9524 11.0606 32.9109 11.2545 32.8769ZM10.2911 35.0044C9.97071 34.3437 9.88906 33.8434 10.0421 33.515L10.8218 35.5574C10.5728 35.4027 10.3952 35.2195 10.2911 35.0044ZM16.3081 35.5518C16.0366 34.7325 15.4059 32.7882 15.2059 31.8463C15.361 31.7745 15.5121 31.7047 15.659 31.6348C16.2101 31.3762 16.6754 31.1648 17.0796 31.0308C17.2163 31.8991 17.5265 33.8208 17.7653 34.9572C17.698 34.9911 17.6368 35.0289 17.5674 35.061C17.1694 35.2516 16.7448 35.414 16.3081 35.5518ZM19.5533 32.926C19.4859 33.4848 19.1247 34.0152 18.5246 34.4777C18.298 33.33 18.0266 31.6424 17.9062 30.8779C18.2001 30.8817 18.4613 30.9647 18.7083 31.1554C19.3247 31.6348 19.6308 32.2785 19.5533 32.926Z" fill="#28348A"/>
<path d="M18.0464 11.0316L17.2749 11.4016L19.4996 10.9957L16.1156 9.58564L19.916 9.52901L16.138 6.21991L19.7221 6.99008L18.626 3.01463L21.41 6.49551L24.3082 2.14252L24.1878 7.32797L27.9576 5.71212L26.0962 8.43227L28.6352 9.75931L25.3594 11.1845L27.3187 13.4214L23.6306 11.8395L24.6225 13.9424L24.4368 12.8306L29.5271 15.0165L26.3595 11.3959L30.0108 9.8065L26.9881 8.22651L29.6434 4.34544L24.843 6.40301L24.9899 0L21.361 5.45162L17.2157 0.266161L18.8526 6.20103L14.0072 5.16092L18.3546 8.96648L13.2725 9.04387L18.0464 11.0316Z" fill="#FF4557"/>
<path d="M9.24989 43.4335L4.33716 46.1272L3.13296 45.2155L4.53106 41.812L1.19195 43.7469L0 42.8445L1.88182 37.8535L3.12072 38.7936L1.692 42.1197L5.01886 40.232L6.13326 41.0758L4.78823 44.4642L8.0314 42.5123L9.24989 43.4335Z" fill="#FF4557"/>
<path d="M8.19854 45.3529C8.61695 43.7181 10.1926 43.0706 12.2581 43.5237C14.3257 43.9748 15.4278 45.2075 15.0094 46.8422C14.591 48.477 13.0092 49.1225 10.9417 48.6714C8.87616 48.2202 7.78014 46.9895 8.19854 45.3529ZM13.4582 46.5043C13.6909 45.5926 13.1153 44.9206 11.9663 44.6695C10.8253 44.4203 9.97627 44.7809 9.74359 45.6926C9.51092 46.6025 10.0865 47.2764 11.2356 47.5275C12.3847 47.7766 13.2256 47.4142 13.4582 46.5043Z" fill="#FF4557"/>
<path d="M15.9938 46.8746C15.6734 45.2191 16.8429 44.0468 18.9329 43.7014C21.0249 43.356 22.5659 44.0808 22.8863 45.7363C23.2068 47.3899 22.0312 48.5659 19.9391 48.9114C17.8491 49.2568 16.3143 48.5301 15.9938 46.8746ZM21.3168 45.9949C21.1392 45.0737 20.3208 44.6679 19.1574 44.8604C18.0022 45.0511 17.3776 45.6948 17.5572 46.616C17.7348 47.5372 18.5533 47.943 19.7166 47.7505C20.878 47.5598 21.4944 46.918 21.3168 45.9949Z" fill="#FF4557"/>
<path d="M27.7766 41.1314L26.3295 45.4335L29.5645 43.5684L30.2013 44.5142L25.0273 47.4967L24.5089 46.7265L25.9621 42.4207L22.9434 44.1612L22.3066 43.2154L27.2581 40.3594L27.7766 41.1314Z" fill="#FF4557"/>
<path d="M31.7256 36.5296L32.0031 41.026L34.3238 38.2304L35.279 38.9081L31.5664 43.3781L30.7887 42.825L30.5152 38.3229L28.3497 40.9317L27.3945 40.254L30.9479 35.9746L31.7256 36.5296Z" fill="#FF4557"/>
<path d="M36.7367 31.7058L37.8817 32.0267L36.2163 37.0951L31.0811 35.6511L32.722 30.6562L33.867 30.9772L32.6751 34.6072L33.518 34.845L34.5018 31.853L35.5958 32.1607L34.612 35.1527L35.5223 35.4075L36.7367 31.7058Z" fill="#FF4557"/>
<path d="M36.5326 24.8101L37.7266 24.7422L38.0777 30.0315L32.72 30.3373L32.373 25.1273L33.567 25.0593L33.8181 28.846L34.6978 28.7969L34.4896 25.6747L35.6305 25.6105L35.8387 28.7327L36.7878 28.678L36.5326 24.8101Z" fill="#FF4557"/>
<path d="M30.4069 20.9817V19.7566H31.1233V19.3848H29.1904V19.7566H29.9027V20.9817H30.4069Z" fill="#28348A"/>
<path d="M33.7523 20.9817V19.3848H33.2175L32.5623 20.1512L31.9153 19.3848H31.3643V20.9817H31.85V19.9624L32.5378 20.742H32.5623L33.2502 19.9624V20.9817H33.7523Z" fill="#28348A"/>
</svg>
