<svg width="39" height="49" viewBox="0 0 39 49" fill="none" xmlns="http://www.w3.org/2000/svg">
<path d="M12.1516 17.3247L15.6236 16.7472V15.881L17.0702 13.2823L19.6742 12.7048L20.2528 11.5499L20.5422 10.1061L21.1208 8.95117H21.6995L22.8568 9.23991H23.4355L24.0141 10.1061L23.1461 11.2611L22.2782 11.8386L21.9888 13.2823L22.2782 13.8598L23.4355 15.5923L22.5675 18.4797L24.5928 19.6347L27.1968 22.5221L28.6434 25.6983L28.9327 30.0294L28.0648 33.4943L26.3288 36.093L24.0141 38.4029L20.8315 40.1354L16.2022 41.0016L11.573 40.4241L7.23301 37.8255L3.47173 33.4943L2.89307 27.4307L4.62904 22.8108L7.52234 19.3459L12.1516 17.3247Z" fill="white" fill-opacity="0.2"/>
<path d="M12.8808 18.4842C9.97851 19.2128 7.63134 20.8947 6.12915 23.0656C6.12915 23.0656 7.99668 23.1033 10.1234 21.4403C10.3377 21.2723 10.6255 21.1949 10.9031 21.1496C12.2481 20.9287 13.1972 22.571 14.5606 22.6503C15.13 22.6824 15.6689 22.4313 16.1812 22.1991C17.1629 21.7593 18.2569 21.361 19.3141 21.5969C20.0897 21.7706 20.7326 22.2671 21.3041 22.7786C21.6837 23.1222 22.0511 23.4809 22.3226 23.9018C22.8532 24.7192 22.992 25.748 22.694 26.6597C22.3716 27.6507 21.5572 28.5738 21.749 29.595C21.8593 30.1821 22.2899 30.6672 22.5614 31.209C23.1084 32.2888 23.0471 33.6781 22.245 34.6087C20.9857 36.0698 21.8184 38.1217 21.8184 38.1217C21.8184 38.1217 22.1185 37.9537 22.2654 37.8669C26.374 35.3902 28.4864 30.6635 27.1353 26.05C25.4576 20.319 19.0774 16.9344 12.8808 18.4842Z" fill="#28348A"/>
<path d="M23.4431 18.2403C23.6533 17.4965 23.8942 16.6924 24.0146 16.4451L24.5473 15.3314L23.6942 14.4026C23.3329 14.01 22.9349 13.6948 22.5206 13.4399L22.9369 12.0751L23.137 12.0242L24.6657 9.9043L23.4513 8.82265L23.0023 9.15866L20.6326 8.10156L19.8346 10.6631L19.953 11.0671L19.2611 12.4546C18.2957 12.3828 17.5874 12.4848 17.5201 12.4961L16.4404 12.6641L15.973 13.5815C15.5566 14.3951 15.3199 15.388 15.1831 16.1789C14.23 16.2261 13.2748 16.3677 12.3298 16.6037C8.79066 17.489 5.83731 19.5994 4.01264 22.5385C2.18593 25.4814 1.70833 28.9038 2.66965 32.177C3.62689 35.4503 5.90875 38.1836 9.08661 39.8731C11.197 40.9906 13.5319 41.5626 15.8975 41.5626C17.1017 41.5626 18.312 41.4134 19.506 41.1152C26.8128 39.2823 31.1459 32.2978 29.1682 25.5399C28.2824 22.5083 26.2618 19.943 23.4431 18.2403ZM20.5041 11.8316L21.0613 11.8618L20.7122 10.6726L20.902 10.061L21.5919 10.4385L21.4041 9.31534L22.3838 9.75328L22.5941 10.4725L23.4023 9.86654L23.5717 10.0176L22.6614 11.2785L22.3144 11.4239L22.2532 11.439L22.2491 11.4503L21.7552 11.658L22.1471 11.7825L21.7613 13.0473C21.2123 12.8075 20.6551 12.6584 20.1326 12.564L20.5041 11.8316ZM19.1753 39.9845C15.9628 40.7905 12.6033 40.3903 9.71524 38.8575C8.2702 38.0911 7.03131 37.0888 6.0455 35.9052C5.05764 34.7235 4.32492 33.3587 3.89018 31.8731C3.01867 28.9019 3.4534 25.7948 5.10867 23.1237C6.76393 20.4526 9.44787 18.5385 12.6604 17.7344C13.4483 17.5381 14.2402 17.4116 15.0362 17.3606C15.3362 17.3399 16.1832 17.3323 16.3057 17.3361C16.3261 17.0813 16.3751 16.6565 16.4669 16.1695C16.5914 15.505 16.7935 14.7198 17.118 14.0836L17.3037 13.7212L17.7303 13.6551C17.8589 13.6362 20.9163 13.1907 22.7308 15.1653L23.0696 15.5315L22.8573 15.9751C22.7165 16.2658 22.5042 16.9529 22.3104 17.6268C22.1859 18.0553 22.0695 18.4819 21.9858 18.7953C22.0328 18.816 22.0756 18.8406 22.1205 18.8632C22.4634 19.0463 22.7982 19.2426 23.1166 19.4503C25.4841 20.9925 27.1823 23.2294 27.9476 25.8476C29.7458 31.9807 25.8107 38.3233 19.1753 39.9845Z" fill="#28348A"/>
<path d="M18.3631 17.5516C19.3305 17.731 20.2776 18.0179 21.1858 18.4124C21.1919 18.1331 21.3165 17.6932 21.4695 17.2458C21.7369 16.4643 22.1002 15.6602 22.1002 15.6602C20.5654 13.9915 17.8712 14.4087 17.8712 14.4087C17.5916 14.958 17.4324 15.6413 17.3446 16.2246C17.3446 16.2303 17.3426 16.2359 17.3426 16.2397C17.2467 16.8589 17.7018 17.4289 18.3631 17.5516Z" fill="#28348A"/>
<path d="M18.267 26.0973L18.7262 25.952C19.1977 25.8028 19.4528 25.3347 19.3161 24.8911C19.116 24.2436 18.7364 23.8038 18.2609 23.7566C17.4485 23.6811 16.6648 24.7854 16.5097 26.2257C16.3546 27.666 16.8832 28.893 17.6955 28.9685C18.3486 29.0289 18.9936 28.3134 19.2916 27.2752L18.2017 26.4163C18.0813 26.3238 18.118 26.1445 18.267 26.0973Z" fill="#28348A"/>
<path d="M11.1237 25.9235L11.5829 25.7781C12.0544 25.629 12.3095 25.1608 12.1728 24.7172C11.9727 24.0698 11.5931 23.6299 11.1176 23.5828C10.3052 23.5072 9.52148 24.6115 9.36636 26.0518C9.21125 27.4921 9.73987 28.7191 10.5522 28.7946C11.2053 28.855 11.8503 28.1396 12.1483 27.1014L11.0584 26.2425C10.9379 26.15 10.9747 25.9707 11.1237 25.9235Z" fill="#28348A"/>
<path d="M19.251 30.5579C18.059 29.631 16.7058 30.2653 15.2751 30.9373C14.6485 31.2318 14.0015 31.5357 13.3157 31.7433C12.5993 31.9604 12.3033 31.9831 11.9298 32.0114C11.7074 32.0284 11.4563 32.0473 11.0971 32.1077C10.1868 32.2662 9.60308 32.5909 9.31326 33.1044C8.9969 33.6631 9.06425 34.388 9.5194 35.3224C9.78881 35.8755 10.344 36.3002 11.1257 36.5532C11.7094 36.7419 12.4115 36.8325 13.1667 36.8325C14.7138 36.8325 16.4915 36.4512 17.9529 35.7547C19.3959 35.0657 20.2613 34.0916 20.3919 33.0119C20.5021 32.1001 20.0857 31.2054 19.251 30.5579ZM13.579 32.4852C13.8668 32.3984 14.1464 32.2927 14.4199 32.1832C14.6668 33.2252 15.2383 34.9864 15.4975 35.7698C14.9444 35.8981 14.3852 35.9831 13.8464 36.0246L12.5952 32.7249C12.8463 32.6834 13.1504 32.6155 13.579 32.4852ZM11.2543 32.876C11.442 32.8439 11.5951 32.825 11.7339 32.8118L12.9626 36.0473C12.5687 36.0378 12.1972 36.0001 11.8604 35.9302L10.742 33.0005C10.891 32.9515 11.0604 32.9099 11.2543 32.876ZM10.2909 35.0034C9.97046 34.3427 9.88882 33.8425 10.0419 33.514L10.8216 35.5565C10.5726 35.4017 10.395 35.2186 10.2909 35.0034ZM16.3078 35.5508C16.0364 34.7315 15.4057 32.7872 15.2057 31.8453C15.3608 31.7736 15.5118 31.7037 15.6588 31.6339C16.2098 31.3753 16.6752 31.1638 17.0793 31.0298C17.2161 31.8981 17.5263 33.8198 17.7651 34.9562C17.6977 34.9902 17.6365 35.0279 17.5671 35.06C17.1691 35.2507 16.7446 35.413 16.3078 35.5508ZM19.553 32.925C19.4857 33.4838 19.1244 34.0142 18.5244 34.4767C18.2978 33.329 18.0263 31.6414 17.9059 30.8769C18.1998 30.8807 18.4611 30.9637 18.708 31.1544C19.3244 31.6339 19.6306 32.2776 19.553 32.925Z" fill="#28348A"/>
<path d="M18.0466 11.0316L17.2751 11.4016L19.4998 10.9957L16.1158 9.58564L19.9162 9.52901L16.1383 6.21991L19.7223 6.99008L18.6263 3.01463L21.4102 6.49551L24.3085 2.14252L24.1881 7.32797L27.9578 5.71212L26.0964 8.43227L28.6354 9.75931L25.3596 11.1845L27.319 13.4214L23.6309 11.8395L24.6228 13.9424L24.4371 12.8306L29.5273 15.0165L26.3597 11.3959L30.0111 9.8065L26.9883 8.22651L29.6437 4.34544L24.8432 6.40301L24.9902 0L21.3612 5.45162L17.2159 0.266161L18.8528 6.20103L14.0075 5.16092L18.3548 8.96648L13.2727 9.04387L18.0466 11.0316Z" fill="#FF4557"/>
<path d="M9.24989 43.4325L4.33716 46.1262L3.13296 45.2145L4.53106 41.811L1.19195 43.7459L0 42.8436L1.88182 37.8525L3.12072 38.7926L1.692 42.1187L5.01886 40.231L6.13326 41.0748L4.78823 44.4632L8.0314 42.5113L9.24989 43.4325Z" fill="#FF4557"/>
<path d="M8.19879 45.3529C8.61719 43.7181 10.1929 43.0706 12.2584 43.5237C14.3259 43.9748 15.4281 45.2075 15.0096 46.8422C14.5912 48.477 13.0095 49.1225 10.9419 48.6714C8.8764 48.2202 7.78038 46.9895 8.19879 45.3529ZM13.4585 46.5043C13.6912 45.5926 13.1156 44.9206 11.9665 44.6695C10.8256 44.4203 9.97651 44.7809 9.74384 45.6926C9.51116 46.6025 10.0867 47.2764 11.2358 47.5275C12.3849 47.7766 13.2258 47.4142 13.4585 46.5043Z" fill="#FF4557"/>
<path d="M15.9933 46.8726C15.6729 45.2171 16.8424 44.0449 18.9324 43.6995C21.0244 43.354 22.5654 44.0789 22.8858 45.7344C23.2063 47.388 22.0307 48.564 19.9386 48.9094C17.8486 49.2549 16.3138 48.5281 15.9933 46.8726ZM21.3163 45.993C21.1387 45.0718 20.3203 44.6659 19.1569 44.8585C18.0017 45.0491 17.3771 45.6928 17.5568 46.614C17.7343 47.5352 18.5528 47.9411 19.7161 47.7485C20.8775 47.5579 21.4939 46.9161 21.3163 45.993Z" fill="#FF4557"/>
<path d="M27.7761 41.1314L26.329 45.4335L29.564 43.5684L30.2008 44.5142L25.0268 47.4967L24.5084 46.7265L25.9616 42.4207L22.9429 44.1612L22.3062 43.2154L27.2577 40.3594L27.7761 41.1314Z" fill="#FF4557"/>
<path d="M31.7256 36.5286L32.0031 41.0251L34.3238 38.2294L35.279 38.9071L31.5664 43.3771L30.7887 42.824L30.5152 38.3219L28.3497 40.9307L27.3945 40.253L30.9479 35.9736L31.7256 36.5286Z" fill="#FF4557"/>
<path d="M36.7362 31.7048L37.8812 32.0257L36.2158 37.0942L31.0806 35.6501L32.7215 30.6553L33.8666 30.9762L32.6746 34.6062L33.5175 34.844L34.5013 31.8521L35.5953 32.1598L34.6115 35.1517L35.5218 35.4066L36.7362 31.7048Z" fill="#FF4557"/>
<path d="M36.5322 24.8092L37.7262 24.7412L38.0772 30.0305L32.7195 30.3363L32.3726 25.1263L33.5666 25.0583L33.8176 28.845L34.6973 28.7959L34.4891 25.6737L35.63 25.6095L35.8382 28.7318L36.7873 28.677L36.5322 24.8092Z" fill="#FF4557"/>
<path d="M30.4069 20.9817V19.7566H31.1233V19.3848H29.1904V19.7566H29.9027V20.9817H30.4069Z" fill="#28348A"/>
<path d="M33.7525 20.9817V19.3848H33.2178L32.5626 20.1512L31.9156 19.3848H31.3645V20.9817H31.8503V19.9624L32.5381 20.742H32.5626L33.2504 19.9624V20.9817H33.7525Z" fill="#28348A"/>
</svg>
