<svg xmlns="http://www.w3.org/2000/svg" xmlns:xlink="http://www.w3.org/1999/xlink"><defs><clipPath id="clip0"><rect width="35" height="35" rx="17.5" fill="#fff"/></clipPath><linearGradient id="paint0_linear" x1="12.006" y1="12.76" x2="37.553" y2="38.307" gradientUnits="userSpaceOnUse"><stop stop-color="#B7C1CE"/><stop offset="1" stop-color="#B8C1CF" stop-opacity="0"/></linearGradient><linearGradient id="paint1_linear" x1="18.001" y1="29.256" x2="18.001" y2="35.338" gradientUnits="userSpaceOnUse"><stop stop-color="#94A1B2" stop-opacity="0"/><stop offset="1" stop-color="#94A1B2"/></linearGradient><linearGradient id="paint2_linear" x1="17.215" y1="17.968" x2="23.491" y2="24.244" gradientUnits="userSpaceOnUse"><stop stop-color="#F00044"/><stop offset="1" stop-color="#C70038"/></linearGradient><linearGradient id="paint3_linear" x1="13.222" y1="11.544" x2="22.271" y2="20.594" gradientUnits="userSpaceOnUse"><stop stop-color="#08FFF9"/><stop offset="1" stop-color="#07D4CF"/></linearGradient><clipPath id="clip0"><rect width="35" height="35" rx="17.5" fill="#fff"/></clipPath><clipPath id="clip1"><path fill="#fff" d="M0 0h36v36H0z"/></clipPath><linearGradient id="paint0_linear" x1="17.5" y1="35" x2="17.5" y2="0" gradientUnits="userSpaceOnUse"><stop stop-color="#FFD600"/><stop offset=".527" stop-color="#FF0095"/><stop offset=".58" stop-color="#F2069C"/><stop offset=".679" stop-color="#CF14B0"/><stop offset=".813" stop-color="#962CCF"/><stop offset=".975" stop-color="#494DFA"/><stop offset=".995" stop-color="#3F51FF"/></linearGradient><clipPath id="clip0"><rect width="50" height="50" rx="25" fill="#fff"/></clipPath><clipPath id="clip0"><path fill="#fff" d="M0 0h50v50H0z"/></clipPath><clipPath id="clip0"><path fill="#fff" d="M0 0h35v35H0z"/></clipPath><clipPath id="clip0"><path fill="#fff" d="M0 0h50v50H0z"/></clipPath></defs><symbol id="Basket"><path d="M10 4.166V2.499M8.333 13.334l-.417-2.5m3.751 2.5l.417-2.5M1.667 7.5h16.667v0c-.787 0-1.18 0-1.51.119a2 2 0 00-1.05.877c-.176.302-.247.69-.388 1.464l-.622 3.422c-.285 1.57-.428 2.356-.985 2.82-.556.465-1.354.465-2.95.465H9.172c-1.596 0-2.394 0-2.95-.465-.557-.464-.7-1.25-.986-2.82L4.614 9.96c-.14-.775-.211-1.162-.387-1.464a2 2 0 00-1.05-.877c-.33-.119-.723-.119-1.51-.119v0z" stroke="#fff" stroke-linecap="round"/></symbol><symbol id="Basket_fill" viewBox="0 0 24 24"><path d="M12 5V3" stroke="#2230A8" stroke-width="2" stroke-linecap="round"/><path fill-rule="evenodd" clip-rule="evenodd" d="M22 8H2v3c.375 0 .563 0 .728.028a2 2 0 011.521 1.22c.063.155.103.338.185.704l.87 3.916c.334 1.501.5 2.252 1.049 2.692C6.9 20 7.67 20 9.209 20h5.582c1.539 0 2.308 0 2.856-.44.549-.44.715-1.19 1.05-2.692l.87-3.916c.08-.366.121-.549.184-.704a2 2 0 011.521-1.22C21.437 11 21.625 11 22 11V8zM9.486 12.836a1 1 0 00-1.972.328l.5 3a1 1 0 101.972-.328l-.5-3zm7 .328a1 1 0 10-1.973-.328l-.5 3a1 1 0 101.973.328l.5-3z" fill="#2230A8"/></symbol><symbol id="border" viewBox="0 0 100 30"><rect class="rect1" x="5%" y="5%" width="80%" height="80%" rx="12%"/></symbol><symbol id="close-menu"><path d="M1 21L21.7 1" stroke="#fff" stroke-width="2" stroke-linecap="round" stroke-linejoin="round"/><path clip-rule="evenodd" d="M21.7 21L1 1l20.7 20z" stroke="#fff" stroke-width="2" stroke-linecap="round" stroke-linejoin="round"/></symbol><symbol id="envelope-alt"><path d="M3 6l9 8 9-8"/><path d="M2 5h20v14H2z"/></symbol><symbol id="extension"><path d="M9 4a2 2 0 114 0v2h5v5h2a2 2 0 110 4h-2v5h-5v-2a2 2 0 10-4 0v2H4v-5h2a2 2 0 100-4H4V6h5V4z"/></symbol><symbol id="Favorite" viewBox="80 12 20 20"><path d="M83.722 22.597l5.802 5.438c.145.136.217.204.296.238a.5.5 0 00.401 0c.079-.034.15-.102.296-.238l5.801-5.438a4.341 4.341 0 00.458-5.832l-.254-.327c-1.644-2.115-4.94-1.76-6.095.657a.45.45 0 01-.813 0c-1.156-2.417-4.452-2.772-6.096-.657l-.254.327a4.341 4.341 0 00.459 5.832z"/></symbol><symbol id="Favorite_fill" viewBox="0 0 16 15"><path d="M2.362 8.436l5.222 4.895c.098.092.147.138.197.167a.5.5 0 00.499 0 1.2 1.2 0 00.197-.167h0l5.221-4.895a3.907 3.907 0 00.413-5.248l-.229-.294C12.402.99 9.436 1.31 8.396 3.485a.405.405 0 01-.731 0C6.625 1.31 3.658.99 2.178 2.894l-.228.294a3.907 3.907 0 00.412 5.248z" fill="#FF4557" stroke="#FF4557" stroke-width="2"/></symbol><symbol id="Frame11"><g clip-path="url(#clip0)"><rect width="35" height="35" rx="17.5" fill="#28348A"/><path d="M10.85 17.85l-2.262-4.2 7.162 4.9V13.3l-.35-.35h3.15l.7 5.25h.888l6.462-4.9 9.1 8.4-.35 8.4-9.8 3.15S15.05 22.4 14 21.7c-1.05-.7-3.15-3.85-3.15-3.85z" fill="#0F1869"/><path fill-rule="evenodd" clip-rule="evenodd" d="M18.649 23.01s.337-.037.51-.219c.157-.167.152-.481.152-.481s-.021-1.469.673-1.686c.685-.213 1.564 1.42 2.497 2.049.705.475 1.24.37 1.24.37l2.494-.033s1.303-.08.685-1.086c-.05-.082-.36-.744-1.853-2.105-1.564-1.424-1.354-1.193.529-3.657 1.146-1.5 1.604-2.416 1.461-2.808-.136-.374-.98-.275-.98-.275l-2.806.017s-.208-.028-.362.063c-.151.089-.249.296-.249.296s-.444 1.16-1.036 2.148c-1.25 2.083-1.75 2.193-1.954 2.064-.475-.302-.357-1.212-.357-1.858 0-2.02.313-2.86-.607-3.079-.305-.072-.53-.12-1.31-.128-1.002-.01-1.849.004-2.33.234-.319.153-.565.496-.414.516.185.024.605.11.828.408.287.385.277 1.247.277 1.247s.165 2.377-.386 2.671c-.378.203-.897-.21-2.011-2.1-.571-.968-1.002-2.038-1.002-2.038s-.083-.2-.232-.308c-.18-.13-.43-.17-.43-.17l-2.668.017s-.4.01-.547.182c-.13.152-.01.466-.01.466s2.088 4.796 4.452 7.213c2.169 2.215 4.63 2.07 4.63 2.07h1.116z" fill="#fff"/></g></symbol><symbol id="Frame12"><g clip-path="url(#clip0)"><g clip-path="url(#clip1)"><path d="M29.56 35.382c-7.7.823-15.42.823-23.119 0A6.547 6.547 0 01.62 29.56a108.68 108.68 0 010-23.119A6.554 6.554 0 016.441.62c7.7-.822 15.42-.822 23.12 0a6.554 6.554 0 015.82 5.822c.824 7.7.824 15.42 0 23.12a6.54 6.54 0 01-5.82 5.82z" fill="#FFFCF8"/><path d="M41.864 27.281c-.021 0-20.475-20.46-20.475-20.46h-3.438v10.391l-2.166-2.18a6.547 6.547 0 00-5.653 1.856 6.559 6.559 0 00-1.934 4.663c0 1.758.69 3.417 1.934 4.662l15.096 15.096a6.53 6.53 0 004.655 1.933c.337 0 .668-.028.991-.07a6.57 6.57 0 003.67-1.856 6.553 6.553 0 001.934-4.634l.007-7.784a8.72 8.72 0 001.948 1.14 8.83 8.83 0 003.431.696V27.28z" fill="url(#paint0_linear)"/><path d="M29.56 35.382c-7.7.823-15.42.823-23.119 0A6.547 6.547 0 01.62 29.56a108.68 108.68 0 010-23.119A6.554 6.554 0 016.441.62c7.7-.822 15.42-.822 23.12 0a6.554 6.554 0 015.82 5.822c.824 7.7.824 15.42 0 23.12a6.54 6.54 0 01-5.82 5.82z" fill="url(#paint1_linear)"/><path d="M23.526 11.095a5.334 5.334 0 01-1.09-3.234h-.013v-.007h-.921a5.36 5.36 0 002.024 3.241zm-8.732 7.306a3.15 3.15 0 00-3.15 3.15c0 1.132.598 2.13 1.498 2.686a3.14 3.14 0 01-.465-1.652 3.15 3.15 0 014.142-2.989v-3.53a6.582 6.582 0 00-.992-.077h-.042v2.574a3.116 3.116 0 00-.991-.162z" fill="#F00044"/><path d="M27.802 13.219c-.352 0-.697-.036-1.027-.099v2.51a8.703 8.703 0 01-3.431-.696 8.566 8.566 0 01-1.948-1.139v7.784h-.007a6.524 6.524 0 01-1.934 4.633 6.526 6.526 0 01-4.661 1.927 6.547 6.547 0 01-4.12-1.441c.154.19.316.372.485.548a6.53 6.53 0 004.661 1.934c.338 0 .668-.029.992-.07a6.57 6.57 0 003.67-1.857 6.553 6.553 0 001.934-4.634h.007v-7.79a8.72 8.72 0 001.947 1.139 8.704 8.704 0 003.431.696v-3.445z" fill="url(#paint2_linear)"/><path d="M26.768 13.12v-.935a5.355 5.355 0 01-3.241-1.09 5.392 5.392 0 003.241 2.025z" fill="#08FFF9"/><path d="M15.82 25.734a3.152 3.152 0 003.15-3.15l.007-5.217V7.854h2.524a5.463 5.463 0 01-.098-1.027h-.014V6.82h-3.438v9.52l-.007 5.218a3.152 3.152 0 01-3.15 3.15 3.14 3.14 0 01-1.653-.464 3.152 3.152 0 002.68 1.49z" fill="url(#paint3_linear)"/><path d="M11.159 17.923a6.562 6.562 0 014.62-1.934v-.956a6.547 6.547 0 00-5.653 1.856 6.559 6.559 0 00-1.935 4.662 6.559 6.559 0 002.482 5.147 6.547 6.547 0 01-1.441-4.12c0-1.751.682-3.41 1.927-4.655z" fill="#08FFF9"/><path d="M15.778 28.076a6.57 6.57 0 003.67-1.856 6.553 6.553 0 001.934-4.634h.007v-7.79a8.722 8.722 0 001.948 1.139 8.703 8.703 0 003.431.696v-2.51a5.365 5.365 0 01-3.248-2.026 5.392 5.392 0 01-2.025-3.241H18.97v9.52l-.007 5.218a3.152 3.152 0 01-5.836 1.652 3.145 3.145 0 01-1.497-2.686 3.15 3.15 0 014.141-2.988v-2.567a6.533 6.533 0 00-4.62 1.934 6.559 6.559 0 00-1.933 4.662 6.56 6.56 0 001.441 4.12 6.546 6.546 0 004.12 1.441 9.168 9.168 0 001-.084z" fill="#000"/></g></g></symbol><symbol id="grid"><path d="M3 3h7v7H3zm11 0h7v7h-7zM3 14h7v7H3zm11 0h7v7h-7z"/></symbol><symbol id="instagram1"><path d="M17.5 35C27.165 35 35 27.165 35 17.5S27.165 0 17.5 0 0 7.835 0 17.5 7.835 35 17.5 35z" fill="#6C27B3"/><path d="M35 17.5c0 3.253-.888 6.3-2.434 8.91a17.592 17.592 0 01-3.6 4.31 17.427 17.427 0 01-12.038 4.27 17.425 17.425 0 01-10.849-4.23 17.576 17.576 0 01-3.718-4.476A17.42 17.42 0 010 17.5c0-3.094.803-6.002 2.212-8.524A17.546 17.546 0 0112.472.734 17.493 17.493 0 0117.5 0c1.748 0 3.436.256 5.029.734a17.545 17.545 0 0110.215 8.164A17.42 17.42 0 0135 17.5z" fill="url(#paint0_linear)"/><path d="M25.615 9.086c-2.09.265-4.271.256-6.465.047-3.064-.236-7.542-1.65-9.192 1.178-2.65 4.528-1.343 10.325-.726 15.455l9.211 9.209c8.913-.474 16.057-7.616 16.531-16.53l-9.359-9.359z" fill="#501A96" fill-opacity=".25"/><path d="M21.549 7.483h-8.098a5.975 5.975 0 00-5.968 5.968v8.098a5.975 5.975 0 005.968 5.968h8.098a5.975 5.975 0 005.968-5.968V13.45a5.975 5.975 0 00-5.968-5.968zm3.953 14.066a3.953 3.953 0 01-3.953 3.953h-8.098A3.953 3.953 0 019.5 21.549V13.45a3.953 3.953 0 013.95-3.95h8.098a3.953 3.953 0 013.953 3.952v8.098z" fill="#fff"/><path d="M17.5 12.319a5.187 5.187 0 00-5.18 5.181 5.187 5.187 0 005.181 5.181 5.187 5.187 0 005.181-5.18 5.187 5.187 0 00-5.18-5.182zm0 8.347a3.166 3.166 0 110-6.332 3.166 3.166 0 010 6.332z" fill="#fff"/><path d="M23.933 12.358a1.242 1.242 0 11-2.483 0 1.242 1.242 0 012.483 0z" fill="#EEE"/><path d="M21.549 7.483h-4.088V9.5h4.088a3.953 3.953 0 013.953 3.952v8.098a3.953 3.953 0 01-3.953 3.953h-4.088v2.015h4.088a5.975 5.975 0 005.968-5.968v-8.1a5.975 5.975 0 00-5.968-5.968z" fill="#EEE"/><path d="M17.5 12.319h-.04v2.016l.04-.001a3.166 3.166 0 010 6.332h-.04v2.014l.04.001a5.187 5.187 0 005.181-5.18 5.187 5.187 0 00-5.18-5.182z" fill="#EEE"/></symbol><symbol id="instagram2" viewBox="0 0 50 50"><path d="M25 50c13.807 0 25-11.193 25-25S38.807 0 25 0 0 11.193 0 25s11.193 25 25 25z" fill="#28348A"/><path d="M50 25c0 4.647-1.268 8.999-3.477 12.728a25.13 25.13 0 01-5.144 6.159A24.894 24.894 0 0125 50a24.892 24.892 0 01-16.315-6.057 25.107 25.107 0 01-5.312-6.394A24.884 24.884 0 010 25c0-4.42 1.147-8.573 3.16-12.177 3.138-5.615 8.38-9.896 14.656-11.775A24.99 24.99 0 0125 0c2.497 0 4.91.366 7.184 1.048a25.065 25.065 0 0114.593 11.664A24.887 24.887 0 0150 25z" fill="#2230A8"/><path d="M36.593 12.98c-2.987.379-6.102.366-9.236.067-4.377-.337-10.774-2.357-13.131 1.684-3.787 6.468-1.92 14.75-1.037 22.078l13.158 13.155c12.733-.676 22.938-10.88 23.616-23.613l-13.37-13.37z" fill="#0F1869"/><path d="M30.784 10.69H19.216c-4.701 0-8.526 3.825-8.526 8.526v11.568c0 4.7 3.825 8.526 8.526 8.526h11.568c4.701 0 8.526-3.825 8.526-8.526V19.216c0-4.701-3.825-8.526-8.526-8.526zm5.647 20.094a5.647 5.647 0 01-5.647 5.647H19.216a5.647 5.647 0 01-5.646-5.647V19.216a5.647 5.647 0 015.646-5.647h11.568a5.647 5.647 0 015.647 5.647v11.568z" fill="#fff"/><path d="M25 17.598c-4.082 0-7.402 3.32-7.402 7.402 0 4.081 3.32 7.402 7.402 7.402 4.081 0 7.402-3.32 7.402-7.402 0-4.081-3.32-7.402-7.402-7.402zm0 11.925a4.523 4.523 0 110-9.046 4.523 4.523 0 010 9.046z" fill="#fff"/><path d="M34.19 17.654a1.774 1.774 0 11-3.547 0 1.774 1.774 0 013.547 0z" fill="#EEE"/><path d="M30.784 10.69h-5.84v2.88h5.84a5.647 5.647 0 015.647 5.646v11.568a5.647 5.647 0 01-5.647 5.647h-5.84v2.879h5.84c4.701 0 8.526-3.825 8.526-8.526V19.216c0-4.701-3.825-8.526-8.526-8.526z" fill="#EEE"/><path d="M25 17.598l-.056.001v2.88l.056-.002a4.523 4.523 0 010 9.046l-.056-.002v2.88H25c4.082 0 7.402-3.32 7.402-7.401 0-4.081-3.32-7.402-7.402-7.402z" fill="#EEE"/></symbol><symbol id="lightbulb"><path clip-rule="evenodd" d="M16 12c-1 1-1 3-1 4s-1 1-1 1h-4s-1 0-1-1 0-3-1-4c-2.326-2.326-2.585-5.9-.242-8.243a6 6 0 018.485 0C18.586 6.101 18.407 9.593 16 12z"/><path d="M10 21h4"/></symbol><symbol id="menu"><rect width="28" height="2" rx="1" fill="#fff"/><rect y="9" width="28" height="2" rx="1" fill="#fff"/><rect y="18" width="28" height="2" rx="1" fill="#fff"/></symbol><symbol id="people"><path d="M1 18c0-2.25 3-2.25 4.5-3.75.75-.75-1.5-.75-1.5-4.5C4 7.25 5 6 7 6s3 1.25 3 3.75c0 3.75-2.25 3.75-1.5 4.5C10 15.75 13 15.75 13 18"/><path d="M11.995 16.243c.567-.39 1.303-.672 2.008-1.011.55-.265 1.081-.566 1.497-.982.75-.75-1.5-.75-1.5-4.5C14 7.25 15 6 17 6s3 1.25 3 3.75c0 3.75-2.25 3.75-1.5 4.5C20 15.75 23 15.75 23 18"/></symbol><symbol id="Search_alt" viewBox="0 0 30 30"><circle cx="13.75" cy="13.75" r="8.75" stroke="#fff" stroke-width="2"/><path d="M13.75 10A3.75 3.75 0 0010 13.75M25 25l-3.75-3.75" stroke="#fff" stroke-width="2" stroke-linecap="round"/></symbol><symbol id="support"><path d="M11 8l-1.578-.789A2 2 0 008.528 7h-.7a2 2 0 00-1.414.586l-.828.828A2 2 0 005 9.828v5.102a2 2 0 00.89 1.664l3.867 2.578a2 2 0 002.39-.128L17 15"/><path clip-rule="evenodd" d="M14.455 12.914a2 2 0 00-2.59-.542l-1.856 1.055a1.523 1.523 0 01-1.728-2.494l4.163-3.47A2 2 0 0113.724 7h.804a2 2 0 01.894.211l2.472 1.236A2 2 0 0119 10.237v2.743c0 1.924-2.451 2.738-3.602 1.196l-.943-1.262z"/><path d="M1 17V8m0 9V8m22 9V8"/></symbol><symbol id="telegram-22"><path d="M25 50c13.807 0 25-11.193 25-25S38.807 0 25 0 0 11.193 0 25s11.193 25 25 25z" fill="#2230A8"/><path d="M49.992 24.422l-11.098-11.08-18.077 22.034 13.016 13.017C43.281 44.822 50 35.697 50 25c0-.194-.003-.386-.007-.578z" fill="#09157C"/><path d="M37.472 13.04a1.347 1.347 0 011.809 1.53l-4.47 21.365a1.408 1.408 0 01-2.21.847l-6.748-4.953-3.44 3.512a1.143 1.143 0 01-1.905-.457l-2.482-7.877-6.651-1.965c-.874-.257-.925-1.473-.078-1.804l26.175-10.199zm-3.28 4.74c.29-.258-.048-.712-.378-.507l-14.357 8.904a.652.652 0 00-.28.75l1.959 8.597c.038.131.227.113.244-.024l.437-6.552a.648.648 0 01.216-.417L34.19 17.78z" fill="#fff"/><path d="M33.814 17.273c.33-.205.669.25.377.507L22.033 28.53a.649.649 0 00-.216.418L21.38 35.5c-.017.137-.206.155-.244.024l-1.958-8.598a.652.652 0 01.28-.749l14.356-8.904z" fill="#9EC2E5"/><path d="M21.206 35.613a1.123 1.123 0 01-.698-.729l-2.482-7.877-6.651-1.965c-.874-.257-.925-1.473-.078-1.804l26.175-10.199a1.342 1.342 0 011.627.532 1.412 1.412 0 00-.214-.254L21.127 27.814v.634l-.098-.07.098 3.996v3.206a.632.632 0 00.08.03v.003z" fill="#fff"/><path d="M39.31 14.21c.004.115-.004.236-.03.36l-4.47 21.364a1.408 1.408 0 01-2.21.847l-6.747-4.953-4.726-3.38v-.635l17.758-14.496c.08.075.153.161.214.254l.035.057.032.059.029.06.027.065c.006.018.015.038.022.06a1.333 1.333 0 01.065.339z" fill="#D1D1D1"/><path d="M25.853 31.828l-3.44 3.512a1.352 1.352 0 01-.181.152l-.002.001c-.064.042-.13.078-.199.106a1.138 1.138 0 01-.825.01l-.079-3.235v-3.926l4.726 3.38z" fill="#D1D1D1"/><path d="M22.324 35.423a.904.904 0 01-.093.07v-.001c.032-.022.063-.044.093-.07zm-.091.069v.003s0-.003-.003 0l.003-.003zm-.202.108zm-.549.075z" fill="#DADDE0"/><path d="M21.602 35.684zm-.119-.009z" fill="#fff"/><path d="M21.482 35.675zm-.24-.052c.037.012.074.022.11.032l-.045-.01a.04.04 0 01-.018-.007.256.256 0 01-.047-.015z" fill="#DADDE0"/><path d="M21.308 35.645l.045.01a.22.22 0 01-.045-.01zm-.066-.022a.44.44 0 01-.029-.008c.01.003.019.007.029.008z" fill="#fff"/><path d="M21.242 35.623c-.01-.001-.019-.005-.029-.008-.001.002-.005 0-.007-.002v-.003c.012.007.024.01.036.013z" fill="#DADDE0"/><path d="M21.127 32.374l.08 3.236a.649.649 0 01-.08-.03v-3.206z" fill="#D1D1D1"/><path d="M21.127 28.448v3.926l-.097-3.997.097.071z" fill="#DADDE0"/><path d="M34.191 17.78L22.033 28.53a.65.65 0 00-.216.418l-.436 6.553c-.017.136-.206.155-.246.023l-1.957-8.598a.652.652 0 01.28-.749l14.356-8.904c.33-.206.669.25.377.507z" fill="#ADBCC9"/></symbol><symbol id="tiktok-hover"><g clip-path="url(#clip0)"><rect width="50" height="50" rx="25" fill="#28348A"/><path d="M58.758 37.5C58.728 37.5 30.5 10 30.5 10l-3.51 1v15l-4.453-4.594a9.093 9.093 0 00-7.852 2.578A9.11 9.11 0 0012 30.46a9.11 9.11 0 002.685 6.475L35.652 57.9a9.07 9.07 0 006.465 2.686c.469 0 .928-.04 1.377-.098a9.126 9.126 0 005.098-2.578 9.101 9.101 0 002.685-6.435l.01-10.81c.83.644 1.738 1.17 2.705 1.581a12.26 12.26 0 004.766.967V37.5z" fill="#0F1869"/><path d="M38.144 17.523a7.547 7.547 0 01-4.56-1.524 7.564 7.564 0 01-3.015-5.976h-4.89v13.364l-.007 7.32a4.426 4.426 0 01-3.04 4.2c-.514.17-1.067.25-1.644.218a4.408 4.408 0 01-2.025-.621 4.426 4.426 0 01-2.164-3.73 4.43 4.43 0 014.436-4.492c.489 0 .957.08 1.396.224v-4.965a9.632 9.632 0 00-1.41-.105 9.378 9.378 0 00-7.047 3.152 9.175 9.175 0 00-2.315 5.535 9.163 9.163 0 002.73 7.138 9.379 9.379 0 006.632 2.715c.476 0 .947-.035 1.41-.103a9.347 9.347 0 005.222-2.612 9.156 9.156 0 002.747-6.516l-.025-10.931c.84.649 1.76 1.185 2.747 1.602 1.534.647 3.161.976 4.836.975v-4.869h-.014z" fill="#fff"/></g></symbol><symbol id="transport"><path d="M4 17H2V7h13v10H8m12 0h2v-4.444L20 9h-5v8h1"/><circle cx="6" cy="17" r="2"/><circle cx="18" cy="17" r="2"/></symbol><symbol id="VK" viewBox="0 0 50 50"><path fill-rule="evenodd" clip-rule="evenodd" d="M0 25C0 11.193 11.193 0 25 0s25 11.193 25 25-11.193 25-25 25S0 38.807 0 25z" fill="#4C6C91"/><path fill-rule="evenodd" clip-rule="evenodd" d="M26.308 33.204s.481-.052.728-.312c.225-.238.217-.688.217-.688s-.03-2.098.963-2.408c.978-.305 2.234 2.03 3.567 2.927 1.007.678 1.771.53 1.771.53l3.562-.049s1.863-.112.98-1.55c-.073-.118-.515-1.064-2.648-3.008-2.234-2.034-1.934-1.705.755-5.224 1.639-2.143 2.293-3.452 2.088-4.011-.194-.536-1.399-.393-1.399-.393l-4.01.024s-.297-.04-.517.09c-.215.126-.355.422-.355.422s-.634 1.658-1.48 3.069c-1.786 2.975-2.5 3.133-2.791 2.948-.68-.431-.51-1.73-.51-2.654 0-2.884.446-4.086-.868-4.398-.435-.103-.756-.171-1.871-.182-1.431-.015-2.641.005-3.327.334-.457.219-.81.708-.594.736.265.034.865.159 1.183.584.41.549.396 1.78.396 1.78s.237 3.396-.551 3.817c-.54.29-1.281-.301-2.873-3.001-.816-1.383-1.431-2.911-1.431-2.911s-.119-.286-.331-.44c-.258-.185-.616-.243-.616-.243l-3.81.025s-.572.015-.782.26c-.187.216-.015.665-.015.665s2.983 6.85 6.361 10.304c3.098 3.165 6.614 2.957 6.614 2.957h1.594z" fill="#fff"/></symbol><symbol id="whatsapp2" viewBox="0 0 50 50"><g clip-path="url(#clip0)"><path d="M25 50c13.807 0 25-11.193 25-25S38.807 0 25 0 0 11.193 0 25s11.193 25 25 25z" fill="#2230A8"/><path d="M35.18 14.827c-1.45-.363-3.581-1.615-4.961-2.117-5.387-1.683-12.626-.336-14.647 5.893-.168.168-.505.168-.673.168-4.04 4.714-1.347 10.438-1.684 15.657-.114 1.84-1.082 3.466-2.327 4.842l10.477 10.466c1.187.173 2.4.264 3.635.264 12.347 0 22.603-8.952 24.633-20.719L35.18 14.827z" fill="#09157C"/><path d="M24.3 10.59c-7.62.363-13.633 6.709-13.61 14.337a14.248 14.248 0 001.558 6.455l-1.52 7.374c-.081.4.279.749.675.655l7.226-1.712a14.24 14.24 0 006.148 1.492c7.789.12 14.283-6.064 14.526-13.85.26-8.346-6.628-15.15-15.002-14.75zm8.623 22.216A11.131 11.131 0 0125 36.088c-1.752 0-3.43-.394-4.987-1.169l-1.006-.501-4.43 1.05.932-4.528-.495-.97a11.078 11.078 0 01-1.218-5.087c0-2.993 1.165-5.806 3.281-7.923A11.224 11.224 0 0125 13.68c2.993 0 5.807 1.165 7.923 3.281a11.132 11.132 0 013.282 7.923c0 2.966-1.184 5.826-3.282 7.923z" fill="#fff"/><path d="M31.945 27.986l-2.772-.795a1.034 1.034 0 00-1.022.27l-.678.69a1.01 1.01 0 01-1.098.232c-1.31-.531-4.07-2.984-4.773-4.21a1.01 1.01 0 01.08-1.12l.591-.765c.232-.3.28-.703.128-1.05l-1.166-2.637a1.034 1.034 0 00-1.614-.37c-.774.655-1.692 1.649-1.803 2.75-.197 1.943.636 4.39 3.785 7.33 3.638 3.396 6.552 3.845 8.45 3.385 1.076-.26 1.936-1.305 2.478-2.16a1.034 1.034 0 00-.586-1.55z" fill="#fff"/><path d="M34.766 14.425l-2.17 2.224a11.131 11.131 0 013.609 8.234c0 2.966-1.185 5.826-3.282 7.923A11.132 11.132 0 0125 36.088c-1.752 0-3.43-.393-4.987-1.169l-1.006-.5-4.43 1.049.09-.445-3.922 4.02c.086.26.361.438.657.368l7.226-1.712a14.241 14.241 0 006.149 1.492c7.788.12 14.282-6.065 14.525-13.85a14.273 14.273 0 00-4.536-10.916z" fill="#E5E5E5"/><path d="M31.944 27.986l-2.771-.795a1.034 1.034 0 00-1.023.27l-.678.69a1.01 1.01 0 01-1.097.232c-.758-.307-1.997-1.255-3.046-2.237l-1.927 1.975.2.19c3.639 3.396 6.553 3.845 8.45 3.385 1.076-.26 1.936-1.305 2.479-2.16a1.034 1.034 0 00-.587-1.55z" fill="#E5E5E5"/></g></symbol><symbol id="youtube1"><g clip-path="url(#clip0)"><path d="M17.5 35C27.165 35 35 27.165 35 17.5S27.165 0 17.5 0 0 7.835 0 17.5 7.835 35 17.5 35z" fill="#D42428"/><path d="M29.874 5.124c6.834 6.835 6.835 17.915 0 24.75-6.834 6.834-17.916 6.835-24.75 0l24.75-24.75z" fill="#CC202D"/><path d="M34.648 21.005l-8.661-8.661-10.215 1.163-6.18 9.566L21.14 34.62c6.788-1.436 12.125-6.806 13.51-13.614z" fill="#BA202E"/><path d="M26.658 14.123a2.655 2.655 0 00-2.655-2.656H11.548a2.655 2.655 0 00-2.654 2.656v7.122a2.655 2.655 0 002.654 2.656h12.455a2.655 2.655 0 002.655-2.656v-7.122zm-10.659 6.566v-6.69l5.073 3.345L16 20.69z" fill="#fff"/></g></symbol><symbol id="youtube2"><g clip-path="url(#clip0)"><path d="M25 50c13.807 0 25-11.193 25-25S38.807 0 25 0 0 11.193 0 25s11.193 25 25 25z" fill="#2230A8"/><path d="M42.677 7.32c9.763 9.764 9.764 25.593 0 35.357-9.763 9.763-25.594 9.764-35.358 0L42.677 7.32z" fill="#2230A8"/><path d="M49.498 30.007L37.124 17.634l-14.593 1.662-8.827 13.666 16.494 16.493c9.698-2.051 17.322-9.722 19.3-19.448z" fill="#0F1869"/><path d="M38.083 20.176a3.793 3.793 0 00-3.793-3.795H16.497a3.793 3.793 0 00-3.791 3.795V30.35a3.793 3.793 0 003.791 3.794H34.29a3.793 3.793 0 003.792-3.794V20.176zm-15.227 9.38v-9.557l7.247 4.779-7.247 4.778z" fill="#fff"/></g></symbol></svg>